<mxfile host="app.diagrams.net" modified="2024-04-18T14:01:22.387Z" agent="Mozilla/5.0 (Macintosh; Intel Mac OS X 10_15_7) AppleWebKit/537.36 (KHTML, like Gecko) Chrome/123.0.0.0 Safari/537.36" etag="_lIBjzib8t218fn2UHlp" version="24.2.5" type="github" pages="2">
  <diagram name="Page-1" id="9f46799a-70d6-7492-0946-bef42562c5a5">
    <mxGraphModel dx="2460" dy="2500" grid="1" gridSize="10" guides="1" tooltips="1" connect="1" arrows="1" fold="1" page="1" pageScale="1" pageWidth="1100" pageHeight="850" background="none" math="0" shadow="0">
      <root>
        <mxCell id="0" />
        <mxCell id="1" parent="0" />
        <mxCell id="78961159f06e98e8-17" value="&amp;lt;&amp;lt;Abstract&amp;gt;&amp;gt;&lt;br&gt;Enemy" style="swimlane;html=1;fontStyle=1;align=center;verticalAlign=top;childLayout=stackLayout;horizontal=1;startSize=40;horizontalStack=0;resizeParent=1;resizeLast=0;collapsible=1;marginBottom=0;swimlaneFillColor=#ffffff;rounded=0;shadow=0;comic=0;labelBackgroundColor=none;strokeWidth=1;fillColor=none;fontFamily=Verdana;fontSize=12" parent="1" vertex="1">
          <mxGeometry x="40" y="-400" width="200" height="700" as="geometry">
            <mxRectangle x="40" y="-400" width="130" height="40" as="alternateBounds" />
          </mxGeometry>
        </mxCell>
        <mxCell id="78961159f06e98e8-21" value="- hp: Hp" style="text;html=1;strokeColor=none;fillColor=none;align=left;verticalAlign=top;spacingLeft=4;spacingRight=4;whiteSpace=wrap;overflow=hidden;rotatable=0;points=[[0,0.5],[1,0.5]];portConstraint=eastwest;" parent="78961159f06e98e8-17" vertex="1">
          <mxGeometry y="40" width="200" height="26" as="geometry" />
        </mxCell>
        <mxCell id="78961159f06e98e8-23" value="- name: String" style="text;html=1;strokeColor=none;fillColor=none;align=left;verticalAlign=top;spacingLeft=4;spacingRight=4;whiteSpace=wrap;overflow=hidden;rotatable=0;points=[[0,0.5],[1,0.5]];portConstraint=eastwest;" parent="78961159f06e98e8-17" vertex="1">
          <mxGeometry y="66" width="200" height="26" as="geometry" />
        </mxCell>
        <mxCell id="78961159f06e98e8-25" value="- type: String" style="text;html=1;strokeColor=none;fillColor=none;align=left;verticalAlign=top;spacingLeft=4;spacingRight=4;whiteSpace=wrap;overflow=hidden;rotatable=0;points=[[0,0.5],[1,0.5]];portConstraint=eastwest;" parent="78961159f06e98e8-17" vertex="1">
          <mxGeometry y="92" width="200" height="26" as="geometry" />
        </mxCell>
        <mxCell id="78961159f06e98e8-26" value="- damage: int" style="text;html=1;strokeColor=none;fillColor=none;align=left;verticalAlign=top;spacingLeft=4;spacingRight=4;whiteSpace=wrap;overflow=hidden;rotatable=0;points=[[0,0.5],[1,0.5]];portConstraint=eastwest;" parent="78961159f06e98e8-17" vertex="1">
          <mxGeometry y="118" width="200" height="26" as="geometry" />
        </mxCell>
        <mxCell id="78961159f06e98e8-24" value="- location_type: int&lt;div&gt;&lt;br&gt;&lt;/div&gt;" style="text;html=1;strokeColor=none;fillColor=none;align=left;verticalAlign=top;spacingLeft=4;spacingRight=4;whiteSpace=wrap;overflow=hidden;rotatable=0;points=[[0,0.5],[1,0.5]];portConstraint=eastwest;" parent="78961159f06e98e8-17" vertex="1">
          <mxGeometry y="144" width="200" height="26" as="geometry" />
        </mxCell>
        <mxCell id="qDR1dN11LgxM--blbOob-2" value="- location_array: Map&lt;div&gt;&lt;br&gt;&lt;/div&gt;" style="text;html=1;strokeColor=none;fillColor=none;align=left;verticalAlign=top;spacingLeft=4;spacingRight=4;whiteSpace=wrap;overflow=hidden;rotatable=0;points=[[0,0.5],[1,0.5]];portConstraint=eastwest;" vertex="1" parent="78961159f06e98e8-17">
          <mxGeometry y="170" width="200" height="26" as="geometry" />
        </mxCell>
        <mxCell id="qDR1dN11LgxM--blbOob-3" value="- spawn_locationX: Map&lt;div&gt;&lt;br&gt;&lt;/div&gt;" style="text;html=1;strokeColor=none;fillColor=none;align=left;verticalAlign=top;spacingLeft=4;spacingRight=4;whiteSpace=wrap;overflow=hidden;rotatable=0;points=[[0,0.5],[1,0.5]];portConstraint=eastwest;" vertex="1" parent="78961159f06e98e8-17">
          <mxGeometry y="196" width="200" height="26" as="geometry" />
        </mxCell>
        <mxCell id="qDR1dN11LgxM--blbOob-4" value="&lt;div&gt;- spawn_locationY: Map&lt;div&gt;&lt;br&gt;&lt;/div&gt;&lt;/div&gt;" style="text;html=1;strokeColor=none;fillColor=none;align=left;verticalAlign=top;spacingLeft=4;spacingRight=4;whiteSpace=wrap;overflow=hidden;rotatable=0;points=[[0,0.5],[1,0.5]];portConstraint=eastwest;" vertex="1" parent="78961159f06e98e8-17">
          <mxGeometry y="222" width="200" height="26" as="geometry" />
        </mxCell>
        <mxCell id="qDR1dN11LgxM--blbOob-5" value="&lt;div&gt;- speed: int&lt;/div&gt;&lt;div&gt;&lt;br&gt;&lt;div&gt;&lt;br&gt;&lt;/div&gt;&lt;/div&gt;" style="text;html=1;strokeColor=none;fillColor=none;align=left;verticalAlign=top;spacingLeft=4;spacingRight=4;whiteSpace=wrap;overflow=hidden;rotatable=0;points=[[0,0.5],[1,0.5]];portConstraint=eastwest;" vertex="1" parent="78961159f06e98e8-17">
          <mxGeometry y="248" width="200" height="26" as="geometry" />
        </mxCell>
        <mxCell id="78961159f06e98e8-19" value="" style="line;html=1;strokeWidth=1;fillColor=none;align=left;verticalAlign=middle;spacingTop=-1;spacingLeft=3;spacingRight=3;rotatable=0;labelPosition=right;points=[];portConstraint=eastwest;" parent="78961159f06e98e8-17" vertex="1">
          <mxGeometry y="274" width="200" height="16" as="geometry" />
        </mxCell>
        <mxCell id="78961159f06e98e8-20" value="+ hit: void" style="text;html=1;strokeColor=none;fillColor=none;align=left;verticalAlign=top;spacingLeft=4;spacingRight=4;whiteSpace=wrap;overflow=hidden;rotatable=0;points=[[0,0.5],[1,0.5]];portConstraint=eastwest;" parent="78961159f06e98e8-17" vertex="1">
          <mxGeometry y="290" width="200" height="20" as="geometry" />
        </mxCell>
        <mxCell id="78961159f06e98e8-27" value="+ move: void" style="text;html=1;strokeColor=none;fillColor=none;align=left;verticalAlign=top;spacingLeft=4;spacingRight=4;whiteSpace=wrap;overflow=hidden;rotatable=0;points=[[0,0.5],[1,0.5]];portConstraint=eastwest;" parent="78961159f06e98e8-17" vertex="1">
          <mxGeometry y="310" width="200" height="20" as="geometry" />
        </mxCell>
        <mxCell id="qDR1dN11LgxM--blbOob-1" style="edgeStyle=orthogonalEdgeStyle;rounded=0;orthogonalLoop=1;jettySize=auto;html=1;exitX=1;exitY=0.5;exitDx=0;exitDy=0;" edge="1" parent="78961159f06e98e8-17" source="78961159f06e98e8-24" target="78961159f06e98e8-24">
          <mxGeometry relative="1" as="geometry" />
        </mxCell>
        <mxCell id="jrWxWCdQOSVb__26DyWI-1" value="+ getHp: void" style="text;html=1;strokeColor=none;fillColor=none;align=left;verticalAlign=top;spacingLeft=4;spacingRight=4;whiteSpace=wrap;overflow=hidden;rotatable=0;points=[[0,0.5],[1,0.5]];portConstraint=eastwest;" vertex="1" parent="78961159f06e98e8-17">
          <mxGeometry y="330" width="200" height="20" as="geometry" />
        </mxCell>
        <mxCell id="jrWxWCdQOSVb__26DyWI-2" value="+ setHp: Hp" style="text;html=1;strokeColor=none;fillColor=none;align=left;verticalAlign=top;spacingLeft=4;spacingRight=4;whiteSpace=wrap;overflow=hidden;rotatable=0;points=[[0,0.5],[1,0.5]];portConstraint=eastwest;" vertex="1" parent="78961159f06e98e8-17">
          <mxGeometry y="350" width="200" height="20" as="geometry" />
        </mxCell>
        <mxCell id="jrWxWCdQOSVb__26DyWI-3" value="+ getName: void" style="text;html=1;strokeColor=none;fillColor=none;align=left;verticalAlign=top;spacingLeft=4;spacingRight=4;whiteSpace=wrap;overflow=hidden;rotatable=0;points=[[0,0.5],[1,0.5]];portConstraint=eastwest;" vertex="1" parent="78961159f06e98e8-17">
          <mxGeometry y="370" width="200" height="20" as="geometry" />
        </mxCell>
        <mxCell id="jrWxWCdQOSVb__26DyWI-4" value="+ setName(String): String" style="text;html=1;strokeColor=none;fillColor=none;align=left;verticalAlign=top;spacingLeft=4;spacingRight=4;whiteSpace=wrap;overflow=hidden;rotatable=0;points=[[0,0.5],[1,0.5]];portConstraint=eastwest;" vertex="1" parent="78961159f06e98e8-17">
          <mxGeometry y="390" width="200" height="20" as="geometry" />
        </mxCell>
        <mxCell id="jrWxWCdQOSVb__26DyWI-5" value="+ getType: void" style="text;html=1;strokeColor=none;fillColor=none;align=left;verticalAlign=top;spacingLeft=4;spacingRight=4;whiteSpace=wrap;overflow=hidden;rotatable=0;points=[[0,0.5],[1,0.5]];portConstraint=eastwest;" vertex="1" parent="78961159f06e98e8-17">
          <mxGeometry y="410" width="200" height="20" as="geometry" />
        </mxCell>
        <mxCell id="jrWxWCdQOSVb__26DyWI-6" value="+ setType(String): String" style="text;html=1;strokeColor=none;fillColor=none;align=left;verticalAlign=top;spacingLeft=4;spacingRight=4;whiteSpace=wrap;overflow=hidden;rotatable=0;points=[[0,0.5],[1,0.5]];portConstraint=eastwest;" vertex="1" parent="78961159f06e98e8-17">
          <mxGeometry y="430" width="200" height="20" as="geometry" />
        </mxCell>
        <mxCell id="jrWxWCdQOSVb__26DyWI-7" value="+ getDamage: void" style="text;html=1;strokeColor=none;fillColor=none;align=left;verticalAlign=top;spacingLeft=4;spacingRight=4;whiteSpace=wrap;overflow=hidden;rotatable=0;points=[[0,0.5],[1,0.5]];portConstraint=eastwest;" vertex="1" parent="78961159f06e98e8-17">
          <mxGeometry y="450" width="200" height="20" as="geometry" />
        </mxCell>
        <mxCell id="jrWxWCdQOSVb__26DyWI-8" value="+ setDamage(int): int" style="text;html=1;strokeColor=none;fillColor=none;align=left;verticalAlign=top;spacingLeft=4;spacingRight=4;whiteSpace=wrap;overflow=hidden;rotatable=0;points=[[0,0.5],[1,0.5]];portConstraint=eastwest;" vertex="1" parent="78961159f06e98e8-17">
          <mxGeometry y="470" width="200" height="20" as="geometry" />
        </mxCell>
        <mxCell id="jrWxWCdQOSVb__26DyWI-9" value="+ getLocationType: void" style="text;html=1;strokeColor=none;fillColor=none;align=left;verticalAlign=top;spacingLeft=4;spacingRight=4;whiteSpace=wrap;overflow=hidden;rotatable=0;points=[[0,0.5],[1,0.5]];portConstraint=eastwest;" vertex="1" parent="78961159f06e98e8-17">
          <mxGeometry y="490" width="200" height="20" as="geometry" />
        </mxCell>
        <mxCell id="jrWxWCdQOSVb__26DyWI-10" value="+ setLocationType(int): int" style="text;html=1;strokeColor=none;fillColor=none;align=left;verticalAlign=top;spacingLeft=4;spacingRight=4;whiteSpace=wrap;overflow=hidden;rotatable=0;points=[[0,0.5],[1,0.5]];portConstraint=eastwest;" vertex="1" parent="78961159f06e98e8-17">
          <mxGeometry y="510" width="200" height="20" as="geometry" />
        </mxCell>
        <mxCell id="jrWxWCdQOSVb__26DyWI-11" value="+ getLocationArray: void" style="text;html=1;strokeColor=none;fillColor=none;align=left;verticalAlign=top;spacingLeft=4;spacingRight=4;whiteSpace=wrap;overflow=hidden;rotatable=0;points=[[0,0.5],[1,0.5]];portConstraint=eastwest;" vertex="1" parent="78961159f06e98e8-17">
          <mxGeometry y="530" width="200" height="20" as="geometry" />
        </mxCell>
        <mxCell id="jrWxWCdQOSVb__26DyWI-12" value="+ setLocationArray(Map): Map" style="text;html=1;strokeColor=none;fillColor=none;align=left;verticalAlign=top;spacingLeft=4;spacingRight=4;whiteSpace=wrap;overflow=hidden;rotatable=0;points=[[0,0.5],[1,0.5]];portConstraint=eastwest;" vertex="1" parent="78961159f06e98e8-17">
          <mxGeometry y="550" width="200" height="20" as="geometry" />
        </mxCell>
        <mxCell id="jrWxWCdQOSVb__26DyWI-13" value="+ getSpawnLocationX: void" style="text;html=1;strokeColor=none;fillColor=none;align=left;verticalAlign=top;spacingLeft=4;spacingRight=4;whiteSpace=wrap;overflow=hidden;rotatable=0;points=[[0,0.5],[1,0.5]];portConstraint=eastwest;" vertex="1" parent="78961159f06e98e8-17">
          <mxGeometry y="570" width="200" height="20" as="geometry" />
        </mxCell>
        <mxCell id="jrWxWCdQOSVb__26DyWI-14" value="+ setSpawnLocationX(Map): Map" style="text;html=1;strokeColor=none;fillColor=none;align=left;verticalAlign=top;spacingLeft=4;spacingRight=4;whiteSpace=wrap;overflow=hidden;rotatable=0;points=[[0,0.5],[1,0.5]];portConstraint=eastwest;" vertex="1" parent="78961159f06e98e8-17">
          <mxGeometry y="590" width="200" height="20" as="geometry" />
        </mxCell>
        <mxCell id="jrWxWCdQOSVb__26DyWI-15" value="+ getSpawnLocationY: void" style="text;html=1;strokeColor=none;fillColor=none;align=left;verticalAlign=top;spacingLeft=4;spacingRight=4;whiteSpace=wrap;overflow=hidden;rotatable=0;points=[[0,0.5],[1,0.5]];portConstraint=eastwest;" vertex="1" parent="78961159f06e98e8-17">
          <mxGeometry y="610" width="200" height="20" as="geometry" />
        </mxCell>
        <mxCell id="jrWxWCdQOSVb__26DyWI-16" value="+ setSpawnLocationY(Map): Map" style="text;html=1;strokeColor=none;fillColor=none;align=left;verticalAlign=top;spacingLeft=4;spacingRight=4;whiteSpace=wrap;overflow=hidden;rotatable=0;points=[[0,0.5],[1,0.5]];portConstraint=eastwest;" vertex="1" parent="78961159f06e98e8-17">
          <mxGeometry y="630" width="200" height="20" as="geometry" />
        </mxCell>
        <mxCell id="jrWxWCdQOSVb__26DyWI-17" value="+ getSpeed: void" style="text;html=1;strokeColor=none;fillColor=none;align=left;verticalAlign=top;spacingLeft=4;spacingRight=4;whiteSpace=wrap;overflow=hidden;rotatable=0;points=[[0,0.5],[1,0.5]];portConstraint=eastwest;" vertex="1" parent="78961159f06e98e8-17">
          <mxGeometry y="650" width="200" height="20" as="geometry" />
        </mxCell>
        <mxCell id="jrWxWCdQOSVb__26DyWI-18" value="+ setSpeed(int):int&amp;nbsp;" style="text;html=1;strokeColor=none;fillColor=none;align=left;verticalAlign=top;spacingLeft=4;spacingRight=4;whiteSpace=wrap;overflow=hidden;rotatable=0;points=[[0,0.5],[1,0.5]];portConstraint=eastwest;" vertex="1" parent="78961159f06e98e8-17">
          <mxGeometry y="670" width="200" height="20" as="geometry" />
        </mxCell>
        <mxCell id="78961159f06e98e8-30" value="Medusa" style="swimlane;html=1;fontStyle=1;align=center;verticalAlign=top;childLayout=stackLayout;horizontal=1;startSize=30;horizontalStack=0;resizeParent=1;resizeLast=0;collapsible=1;marginBottom=0;swimlaneFillColor=#ffffff;rounded=0;shadow=0;comic=0;labelBackgroundColor=none;strokeWidth=1;fillColor=none;fontFamily=Verdana;fontSize=12" parent="1" vertex="1">
          <mxGeometry x="420" y="-400" width="210" height="290" as="geometry">
            <mxRectangle x="420" y="-400" width="90" height="30" as="alternateBounds" />
          </mxGeometry>
        </mxCell>
        <mxCell id="qDR1dN11LgxM--blbOob-23" value="- time: Time" style="text;html=1;strokeColor=none;fillColor=none;align=left;verticalAlign=top;spacingLeft=4;spacingRight=4;whiteSpace=wrap;overflow=hidden;rotatable=0;points=[[0,0.5],[1,0.5]];portConstraint=eastwest;" vertex="1" parent="78961159f06e98e8-30">
          <mxGeometry y="30" width="210" height="26" as="geometry" />
        </mxCell>
        <mxCell id="78961159f06e98e8-38" value="" style="line;html=1;strokeWidth=1;fillColor=none;align=left;verticalAlign=middle;spacingTop=-1;spacingLeft=3;spacingRight=3;rotatable=0;labelPosition=right;points=[];portConstraint=eastwest;" parent="78961159f06e98e8-30" vertex="1">
          <mxGeometry y="56" width="210" height="24" as="geometry" />
        </mxCell>
        <mxCell id="78961159f06e98e8-42" value="+ isGettingHit: bool" style="text;html=1;strokeColor=none;fillColor=none;align=left;verticalAlign=top;spacingLeft=4;spacingRight=4;whiteSpace=wrap;overflow=hidden;rotatable=0;points=[[0,0.5],[1,0.5]];portConstraint=eastwest;" parent="78961159f06e98e8-30" vertex="1">
          <mxGeometry y="80" width="210" height="24" as="geometry" />
        </mxCell>
        <mxCell id="qDR1dN11LgxM--blbOob-9" value="+&amp;nbsp;move: void" style="text;html=1;strokeColor=none;fillColor=none;align=left;verticalAlign=top;spacingLeft=4;spacingRight=4;whiteSpace=wrap;overflow=hidden;rotatable=0;points=[[0,0.5],[1,0.5]];portConstraint=eastwest;" vertex="1" parent="78961159f06e98e8-30">
          <mxGeometry y="104" width="210" height="26" as="geometry" />
        </mxCell>
        <mxCell id="78961159f06e98e8-40" value="+ decreaseHp(bool): void" style="text;html=1;strokeColor=none;fillColor=none;align=left;verticalAlign=top;spacingLeft=4;spacingRight=4;whiteSpace=wrap;overflow=hidden;rotatable=0;points=[[0,0.5],[1,0.5]];portConstraint=eastwest;" parent="78961159f06e98e8-30" vertex="1">
          <mxGeometry y="130" width="210" height="26" as="geometry" />
        </mxCell>
        <mxCell id="78961159f06e98e8-39" value="+ hit: void" style="text;html=1;strokeColor=none;fillColor=none;align=left;verticalAlign=top;spacingLeft=4;spacingRight=4;whiteSpace=wrap;overflow=hidden;rotatable=0;points=[[0,0.5],[1,0.5]];portConstraint=eastwest;" parent="78961159f06e98e8-30" vertex="1">
          <mxGeometry y="156" width="210" height="24" as="geometry" />
        </mxCell>
        <mxCell id="qDR1dN11LgxM--blbOob-24" value="+ increaseSpeedByTime(bool): Time" style="text;html=1;strokeColor=none;fillColor=none;align=left;verticalAlign=top;spacingLeft=4;spacingRight=4;whiteSpace=wrap;overflow=hidden;rotatable=0;points=[[0,0.5],[1,0.5]];portConstraint=eastwest;" vertex="1" parent="78961159f06e98e8-30">
          <mxGeometry y="180" width="210" height="26" as="geometry" />
        </mxCell>
        <mxCell id="qDR1dN11LgxM--blbOob-161" value="+ isTime: bool" style="text;html=1;strokeColor=none;fillColor=none;align=left;verticalAlign=top;spacingLeft=4;spacingRight=4;whiteSpace=wrap;overflow=hidden;rotatable=0;points=[[0,0.5],[1,0.5]];portConstraint=eastwest;" vertex="1" parent="78961159f06e98e8-30">
          <mxGeometry y="206" width="210" height="24" as="geometry" />
        </mxCell>
        <mxCell id="jrWxWCdQOSVb__26DyWI-21" value="+ getTime: void" style="text;html=1;strokeColor=none;fillColor=none;align=left;verticalAlign=top;spacingLeft=4;spacingRight=4;whiteSpace=wrap;overflow=hidden;rotatable=0;points=[[0,0.5],[1,0.5]];portConstraint=eastwest;" vertex="1" parent="78961159f06e98e8-30">
          <mxGeometry y="230" width="210" height="26" as="geometry" />
        </mxCell>
        <mxCell id="jrWxWCdQOSVb__26DyWI-22" value="+ setTime(Time): Time" style="text;html=1;strokeColor=none;fillColor=none;align=left;verticalAlign=top;spacingLeft=4;spacingRight=4;whiteSpace=wrap;overflow=hidden;rotatable=0;points=[[0,0.5],[1,0.5]];portConstraint=eastwest;" vertex="1" parent="78961159f06e98e8-30">
          <mxGeometry y="256" width="210" height="26" as="geometry" />
        </mxCell>
        <mxCell id="78961159f06e98e8-43" value="Kerberos" style="swimlane;html=1;fontStyle=1;align=center;verticalAlign=top;childLayout=stackLayout;horizontal=1;startSize=26;horizontalStack=0;resizeParent=1;resizeLast=0;collapsible=1;marginBottom=0;swimlaneFillColor=#ffffff;rounded=0;shadow=0;comic=0;labelBackgroundColor=none;strokeWidth=1;fillColor=none;fontFamily=Verdana;fontSize=12" parent="1" vertex="1">
          <mxGeometry x="850" y="-400" width="160" height="140" as="geometry" />
        </mxCell>
        <mxCell id="78961159f06e98e8-51" value="" style="line;html=1;strokeWidth=1;fillColor=none;align=left;verticalAlign=middle;spacingTop=-1;spacingLeft=3;spacingRight=3;rotatable=0;labelPosition=right;points=[];portConstraint=eastwest;" parent="78961159f06e98e8-43" vertex="1">
          <mxGeometry y="26" width="160" height="8" as="geometry" />
        </mxCell>
        <mxCell id="qDR1dN11LgxM--blbOob-25" value="+ move: void" style="text;html=1;strokeColor=none;fillColor=none;align=left;verticalAlign=top;spacingLeft=4;spacingRight=4;whiteSpace=wrap;overflow=hidden;rotatable=0;points=[[0,0.5],[1,0.5]];portConstraint=eastwest;" vertex="1" parent="78961159f06e98e8-43">
          <mxGeometry y="34" width="160" height="26" as="geometry" />
        </mxCell>
        <mxCell id="qDR1dN11LgxM--blbOob-26" value="+ isGettingHit: bool" style="text;html=1;strokeColor=none;fillColor=none;align=left;verticalAlign=top;spacingLeft=4;spacingRight=4;whiteSpace=wrap;overflow=hidden;rotatable=0;points=[[0,0.5],[1,0.5]];portConstraint=eastwest;" vertex="1" parent="78961159f06e98e8-43">
          <mxGeometry y="60" width="160" height="24" as="geometry" />
        </mxCell>
        <mxCell id="qDR1dN11LgxM--blbOob-27" value="+ decreaseHp(bool): void" style="text;html=1;strokeColor=none;fillColor=none;align=left;verticalAlign=top;spacingLeft=4;spacingRight=4;whiteSpace=wrap;overflow=hidden;rotatable=0;points=[[0,0.5],[1,0.5]];portConstraint=eastwest;" vertex="1" parent="78961159f06e98e8-43">
          <mxGeometry y="84" width="160" height="26" as="geometry" />
        </mxCell>
        <mxCell id="qDR1dN11LgxM--blbOob-28" value="+ hit: void" style="text;html=1;strokeColor=none;fillColor=none;align=left;verticalAlign=top;spacingLeft=4;spacingRight=4;whiteSpace=wrap;overflow=hidden;rotatable=0;points=[[0,0.5],[1,0.5]];portConstraint=eastwest;" vertex="1" parent="78961159f06e98e8-43">
          <mxGeometry y="110" width="160" height="24" as="geometry" />
        </mxCell>
        <mxCell id="78961159f06e98e8-95" value="&amp;lt;&amp;lt;Abstract&amp;gt;&amp;gt;&lt;br&gt;Staff" style="swimlane;html=1;fontStyle=1;align=center;verticalAlign=top;childLayout=stackLayout;horizontal=1;startSize=40;horizontalStack=0;resizeParent=1;resizeLast=0;collapsible=1;marginBottom=0;swimlaneFillColor=#ffffff;rounded=0;shadow=0;comic=0;labelBackgroundColor=none;strokeWidth=1;fillColor=none;fontFamily=Verdana;fontSize=12" parent="1" vertex="1">
          <mxGeometry x="650" y="-140" width="210" height="320" as="geometry" />
        </mxCell>
        <mxCell id="78961159f06e98e8-97" value="# name: String" style="text;html=1;strokeColor=none;fillColor=none;align=left;verticalAlign=top;spacingLeft=4;spacingRight=4;whiteSpace=wrap;overflow=hidden;rotatable=0;points=[[0,0.5],[1,0.5]];portConstraint=eastwest;" parent="78961159f06e98e8-95" vertex="1">
          <mxGeometry y="40" width="210" height="26" as="geometry" />
        </mxCell>
        <mxCell id="78961159f06e98e8-98" value="# type: String" style="text;html=1;strokeColor=none;fillColor=none;align=left;verticalAlign=top;spacingLeft=4;spacingRight=4;whiteSpace=wrap;overflow=hidden;rotatable=0;points=[[0,0.5],[1,0.5]];portConstraint=eastwest;" parent="78961159f06e98e8-95" vertex="1">
          <mxGeometry y="66" width="210" height="26" as="geometry" />
        </mxCell>
        <mxCell id="78961159f06e98e8-102" value="# damage: int&lt;div&gt;&lt;br/&gt;&lt;/div&gt;" style="text;html=1;strokeColor=none;fillColor=none;align=left;verticalAlign=top;spacingLeft=4;spacingRight=4;whiteSpace=wrap;overflow=hidden;rotatable=0;points=[[0,0.5],[1,0.5]];portConstraint=eastwest;" parent="78961159f06e98e8-95" vertex="1">
          <mxGeometry y="92" width="210" height="26" as="geometry" />
        </mxCell>
        <mxCell id="qDR1dN11LgxM--blbOob-32" value="&lt;div&gt;# location_type: int&lt;div&gt;&lt;br&gt;&lt;/div&gt;&lt;/div&gt;" style="text;html=1;strokeColor=none;fillColor=none;align=left;verticalAlign=top;spacingLeft=4;spacingRight=4;whiteSpace=wrap;overflow=hidden;rotatable=0;points=[[0,0.5],[1,0.5]];portConstraint=eastwest;" vertex="1" parent="78961159f06e98e8-95">
          <mxGeometry y="118" width="210" height="26" as="geometry" />
        </mxCell>
        <mxCell id="qDR1dN11LgxM--blbOob-33" value="# location_array: Map&lt;div&gt;&lt;br&gt;&lt;/div&gt;" style="text;html=1;strokeColor=none;fillColor=none;align=left;verticalAlign=top;spacingLeft=4;spacingRight=4;whiteSpace=wrap;overflow=hidden;rotatable=0;points=[[0,0.5],[1,0.5]];portConstraint=eastwest;" vertex="1" parent="78961159f06e98e8-95">
          <mxGeometry y="144" width="210" height="26" as="geometry" />
        </mxCell>
        <mxCell id="qDR1dN11LgxM--blbOob-34" value="# spawn_locationX: Map&lt;div&gt;&lt;br&gt;&lt;/div&gt;" style="text;html=1;strokeColor=none;fillColor=none;align=left;verticalAlign=top;spacingLeft=4;spacingRight=4;whiteSpace=wrap;overflow=hidden;rotatable=0;points=[[0,0.5],[1,0.5]];portConstraint=eastwest;" vertex="1" parent="78961159f06e98e8-95">
          <mxGeometry y="170" width="210" height="26" as="geometry" />
        </mxCell>
        <mxCell id="qDR1dN11LgxM--blbOob-35" value="&lt;div&gt;# spawn_locationY: Map&lt;div&gt;&lt;br&gt;&lt;/div&gt;&lt;/div&gt;" style="text;html=1;strokeColor=none;fillColor=none;align=left;verticalAlign=top;spacingLeft=4;spacingRight=4;whiteSpace=wrap;overflow=hidden;rotatable=0;points=[[0,0.5],[1,0.5]];portConstraint=eastwest;" vertex="1" parent="78961159f06e98e8-95">
          <mxGeometry y="196" width="210" height="26" as="geometry" />
        </mxCell>
        <mxCell id="qDR1dN11LgxM--blbOob-31" value="# speed: int&lt;div&gt;&lt;br&gt;&lt;/div&gt;" style="text;html=1;strokeColor=none;fillColor=none;align=left;verticalAlign=top;spacingLeft=4;spacingRight=4;whiteSpace=wrap;overflow=hidden;rotatable=0;points=[[0,0.5],[1,0.5]];portConstraint=eastwest;" vertex="1" parent="78961159f06e98e8-95">
          <mxGeometry y="222" width="210" height="26" as="geometry" />
        </mxCell>
        <mxCell id="qDR1dN11LgxM--blbOob-84" value="- draw: String" style="text;html=1;strokeColor=none;fillColor=none;align=left;verticalAlign=top;spacingLeft=4;spacingRight=4;whiteSpace=wrap;overflow=hidden;rotatable=0;points=[[0,0.5],[1,0.5]];portConstraint=eastwest;" vertex="1" parent="78961159f06e98e8-95">
          <mxGeometry y="248" width="210" height="26" as="geometry" />
        </mxCell>
        <mxCell id="78961159f06e98e8-103" value="" style="line;html=1;strokeWidth=1;fillColor=none;align=left;verticalAlign=middle;spacingTop=-1;spacingLeft=3;spacingRight=3;rotatable=0;labelPosition=right;points=[];portConstraint=eastwest;" parent="78961159f06e98e8-95" vertex="1">
          <mxGeometry y="274" width="210" height="16" as="geometry" />
        </mxCell>
        <mxCell id="qDR1dN11LgxM--blbOob-36" value="# move: void" style="text;html=1;strokeColor=none;fillColor=none;align=left;verticalAlign=top;spacingLeft=4;spacingRight=4;whiteSpace=wrap;overflow=hidden;rotatable=0;points=[[0,0.5],[1,0.5]];portConstraint=eastwest;" vertex="1" parent="78961159f06e98e8-95">
          <mxGeometry y="290" width="210" height="20" as="geometry" />
        </mxCell>
        <mxCell id="78961159f06e98e8-108" value="Rock" style="swimlane;html=1;fontStyle=1;align=center;verticalAlign=top;childLayout=stackLayout;horizontal=1;startSize=30;horizontalStack=0;resizeParent=1;resizeLast=0;collapsible=1;marginBottom=0;swimlaneFillColor=#ffffff;rounded=0;shadow=0;comic=0;labelBackgroundColor=none;strokeWidth=1;fillColor=none;fontFamily=Verdana;fontSize=12" parent="1" vertex="1">
          <mxGeometry x="770" y="250" width="180" height="90" as="geometry" />
        </mxCell>
        <mxCell id="qDR1dN11LgxM--blbOob-78" value="-maxnumber_rock: int" style="text;html=1;strokeColor=none;fillColor=none;align=left;verticalAlign=top;spacingLeft=4;spacingRight=4;whiteSpace=wrap;overflow=hidden;rotatable=0;points=[[0,0.5],[1,0.5]];portConstraint=eastwest;" vertex="1" parent="78961159f06e98e8-108">
          <mxGeometry y="30" width="180" height="26" as="geometry" />
        </mxCell>
        <mxCell id="78961159f06e98e8-116" value="" style="line;html=1;strokeWidth=1;fillColor=none;align=left;verticalAlign=middle;spacingTop=-1;spacingLeft=3;spacingRight=3;rotatable=0;labelPosition=right;points=[];portConstraint=eastwest;" parent="78961159f06e98e8-108" vertex="1">
          <mxGeometry y="56" width="180" height="8" as="geometry" />
        </mxCell>
        <mxCell id="qDR1dN11LgxM--blbOob-102" value="-randomPlace: void" style="text;html=1;strokeColor=none;fillColor=none;align=left;verticalAlign=top;spacingLeft=4;spacingRight=4;whiteSpace=wrap;overflow=hidden;rotatable=0;points=[[0,0.5],[1,0.5]];portConstraint=eastwest;" vertex="1" parent="78961159f06e98e8-108">
          <mxGeometry y="64" width="180" height="26" as="geometry" />
        </mxCell>
        <mxCell id="qDR1dN11LgxM--blbOob-18" value="Extends" style="endArrow=block;endSize=16;endFill=0;html=1;rounded=0;exitX=0;exitY=0.5;exitDx=0;exitDy=0;" edge="1" parent="1" source="qDR1dN11LgxM--blbOob-9">
          <mxGeometry x="-0.133" width="160" relative="1" as="geometry">
            <mxPoint x="430" y="40" as="sourcePoint" />
            <mxPoint x="240" y="-283" as="targetPoint" />
            <Array as="points">
              <mxPoint x="330" y="-283" />
            </Array>
            <mxPoint as="offset" />
          </mxGeometry>
        </mxCell>
        <mxCell id="qDR1dN11LgxM--blbOob-30" value="Extends" style="endArrow=block;endSize=16;endFill=0;html=1;rounded=0;entryX=0.5;entryY=0;entryDx=0;entryDy=0;edgeStyle=elbowEdgeStyle;elbow=vertical;exitX=0.463;exitY=-0.011;exitDx=0;exitDy=0;exitPerimeter=0;" edge="1" parent="1">
          <mxGeometry x="0.1482" width="160" relative="1" as="geometry">
            <mxPoint x="939.9999999999999" y="-399.997" as="sourcePoint" />
            <mxPoint x="144.92" y="-398.16" as="targetPoint" />
            <Array as="points">
              <mxPoint x="550" y="-430" />
            </Array>
            <mxPoint as="offset" />
          </mxGeometry>
        </mxCell>
        <mxCell id="qDR1dN11LgxM--blbOob-37" value="Statue" style="swimlane;html=1;fontStyle=1;align=center;verticalAlign=top;childLayout=stackLayout;horizontal=1;startSize=26;horizontalStack=0;resizeParent=1;resizeLast=0;collapsible=1;marginBottom=0;swimlaneFillColor=#ffffff;rounded=0;shadow=0;comic=0;labelBackgroundColor=none;strokeWidth=1;fillColor=none;fontFamily=Verdana;fontSize=12" vertex="1" parent="1">
          <mxGeometry x="580" y="250" width="180" height="150" as="geometry" />
        </mxCell>
        <mxCell id="qDR1dN11LgxM--blbOob-77" value="-maxnumber_statue: int" style="text;html=1;strokeColor=none;fillColor=none;align=left;verticalAlign=top;spacingLeft=4;spacingRight=4;whiteSpace=wrap;overflow=hidden;rotatable=0;points=[[0,0.5],[1,0.5]];portConstraint=eastwest;" vertex="1" parent="qDR1dN11LgxM--blbOob-37">
          <mxGeometry y="26" width="180" height="26" as="geometry" />
        </mxCell>
        <mxCell id="qDR1dN11LgxM--blbOob-40" value="" style="line;html=1;strokeWidth=1;fillColor=none;align=left;verticalAlign=middle;spacingTop=-1;spacingLeft=3;spacingRight=3;rotatable=0;labelPosition=right;points=[];portConstraint=eastwest;" vertex="1" parent="qDR1dN11LgxM--blbOob-37">
          <mxGeometry y="52" width="180" height="8" as="geometry" />
        </mxCell>
        <mxCell id="qDR1dN11LgxM--blbOob-104" value="+ randomPlace: void" style="text;html=1;strokeColor=none;fillColor=none;align=left;verticalAlign=top;spacingLeft=4;spacingRight=4;whiteSpace=wrap;overflow=hidden;rotatable=0;points=[[0,0.5],[1,0.5]];portConstraint=eastwest;" vertex="1" parent="qDR1dN11LgxM--blbOob-37">
          <mxGeometry y="60" width="180" height="26" as="geometry" />
        </mxCell>
        <mxCell id="jrWxWCdQOSVb__26DyWI-31" value="+ getMaxNumberStatue: void" style="text;html=1;strokeColor=none;fillColor=none;align=left;verticalAlign=top;spacingLeft=4;spacingRight=4;whiteSpace=wrap;overflow=hidden;rotatable=0;points=[[0,0.5],[1,0.5]];portConstraint=eastwest;" vertex="1" parent="qDR1dN11LgxM--blbOob-37">
          <mxGeometry y="86" width="180" height="26" as="geometry" />
        </mxCell>
        <mxCell id="jrWxWCdQOSVb__26DyWI-32" value="+ getMaxNumberStatue(int): int" style="text;html=1;strokeColor=none;fillColor=none;align=left;verticalAlign=top;spacingLeft=4;spacingRight=4;whiteSpace=wrap;overflow=hidden;rotatable=0;points=[[0,0.5],[1,0.5]];portConstraint=eastwest;" vertex="1" parent="qDR1dN11LgxM--blbOob-37">
          <mxGeometry y="112" width="180" height="26" as="geometry" />
        </mxCell>
        <mxCell id="qDR1dN11LgxM--blbOob-44" value="Kharoon" style="swimlane;html=1;fontStyle=1;align=center;verticalAlign=top;childLayout=stackLayout;horizontal=1;startSize=26;horizontalStack=0;resizeParent=1;resizeLast=0;collapsible=1;marginBottom=0;swimlaneFillColor=#ffffff;rounded=0;shadow=0;comic=0;labelBackgroundColor=none;strokeWidth=1;fillColor=none;fontFamily=Verdana;fontSize=12" vertex="1" parent="1">
          <mxGeometry x="390" y="250" width="180" height="90" as="geometry" />
        </mxCell>
        <mxCell id="qDR1dN11LgxM--blbOob-47" value="" style="line;html=1;strokeWidth=1;fillColor=none;align=left;verticalAlign=middle;spacingTop=-1;spacingLeft=3;spacingRight=3;rotatable=0;labelPosition=right;points=[];portConstraint=eastwest;" vertex="1" parent="qDR1dN11LgxM--blbOob-44">
          <mxGeometry y="26" width="180" height="8" as="geometry" />
        </mxCell>
        <mxCell id="qDR1dN11LgxM--blbOob-83" value="+ wantMoney: void" style="text;html=1;strokeColor=none;fillColor=none;align=left;verticalAlign=top;spacingLeft=4;spacingRight=4;whiteSpace=wrap;overflow=hidden;rotatable=0;points=[[0,0.5],[1,0.5]];portConstraint=eastwest;" vertex="1" parent="qDR1dN11LgxM--blbOob-44">
          <mxGeometry y="34" width="180" height="26" as="geometry" />
        </mxCell>
        <mxCell id="qDR1dN11LgxM--blbOob-50" value="Extends" style="endArrow=block;endSize=16;endFill=0;html=1;rounded=0;edgeStyle=elbowEdgeStyle;elbow=vertical;exitX=0.5;exitY=0;exitDx=0;exitDy=0;" edge="1" parent="1" source="qDR1dN11LgxM--blbOob-44">
          <mxGeometry x="0.0035" width="160" relative="1" as="geometry">
            <mxPoint x="440" y="250" as="sourcePoint" />
            <mxPoint x="678" y="180" as="targetPoint" />
            <mxPoint as="offset" />
          </mxGeometry>
        </mxCell>
        <mxCell id="qDR1dN11LgxM--blbOob-53" value="Extends" style="endArrow=block;endSize=16;endFill=0;html=1;rounded=0;edgeStyle=elbowEdgeStyle;elbow=vertical;exitX=0.567;exitY=-0.058;exitDx=0;exitDy=0;exitPerimeter=0;" edge="1" parent="1">
          <mxGeometry x="-0.0991" y="-1" width="160" relative="1" as="geometry">
            <mxPoint x="690" y="244.77999999999997" as="sourcePoint" />
            <mxPoint x="710" y="180" as="targetPoint" />
            <mxPoint as="offset" />
            <Array as="points" />
          </mxGeometry>
        </mxCell>
        <mxCell id="qDR1dN11LgxM--blbOob-54" value="Extends" style="endArrow=block;endSize=16;endFill=0;html=1;rounded=0;edgeStyle=elbowEdgeStyle;elbow=vertical;exitX=0.551;exitY=-0.016;exitDx=0;exitDy=0;exitPerimeter=0;" edge="1" parent="1" source="78961159f06e98e8-108">
          <mxGeometry x="0.0096" width="160" relative="1" as="geometry">
            <mxPoint x="1010" y="570" as="sourcePoint" />
            <mxPoint x="740" y="180" as="targetPoint" />
            <mxPoint as="offset" />
            <Array as="points">
              <mxPoint x="820" y="220" />
            </Array>
          </mxGeometry>
        </mxCell>
        <mxCell id="qDR1dN11LgxM--blbOob-63" value="&amp;lt;&amp;lt;Abstract&amp;gt;&amp;gt;&lt;br&gt;Map" style="swimlane;html=1;fontStyle=1;align=center;verticalAlign=top;childLayout=stackLayout;horizontal=1;startSize=40;horizontalStack=0;resizeParent=1;resizeLast=0;collapsible=1;marginBottom=0;swimlaneFillColor=#ffffff;rounded=0;shadow=0;comic=0;labelBackgroundColor=none;strokeWidth=1;fillColor=none;fontFamily=Verdana;fontSize=12" vertex="1" parent="1">
          <mxGeometry x="450" y="-840" width="178" height="140" as="geometry" />
        </mxCell>
        <mxCell id="qDR1dN11LgxM--blbOob-68" value="- mapSize : int[ , ]&lt;div&gt;&lt;br&gt;&lt;/div&gt;" style="text;html=1;strokeColor=none;fillColor=none;align=left;verticalAlign=top;spacingLeft=4;spacingRight=4;whiteSpace=wrap;overflow=hidden;rotatable=0;points=[[0,0.5],[1,0.5]];portConstraint=eastwest;" vertex="1" parent="qDR1dN11LgxM--blbOob-63">
          <mxGeometry y="40" width="178" height="26" as="geometry" />
        </mxCell>
        <mxCell id="qDR1dN11LgxM--blbOob-73" value="" style="line;html=1;strokeWidth=1;fillColor=none;align=left;verticalAlign=middle;spacingTop=-1;spacingLeft=3;spacingRight=3;rotatable=0;labelPosition=right;points=[];portConstraint=eastwest;" vertex="1" parent="qDR1dN11LgxM--blbOob-63">
          <mxGeometry y="66" width="178" height="14" as="geometry" />
        </mxCell>
        <mxCell id="qDR1dN11LgxM--blbOob-76" style="edgeStyle=orthogonalEdgeStyle;rounded=0;orthogonalLoop=1;jettySize=auto;html=1;exitX=1;exitY=0.5;exitDx=0;exitDy=0;" edge="1" parent="qDR1dN11LgxM--blbOob-63" source="qDR1dN11LgxM--blbOob-68" target="qDR1dN11LgxM--blbOob-68">
          <mxGeometry relative="1" as="geometry" />
        </mxCell>
        <mxCell id="jrWxWCdQOSVb__26DyWI-19" value="+ getMapSize : void&lt;div&gt;&lt;br&gt;&lt;/div&gt;" style="text;html=1;strokeColor=none;fillColor=none;align=left;verticalAlign=top;spacingLeft=4;spacingRight=4;whiteSpace=wrap;overflow=hidden;rotatable=0;points=[[0,0.5],[1,0.5]];portConstraint=eastwest;" vertex="1" parent="qDR1dN11LgxM--blbOob-63">
          <mxGeometry y="80" width="178" height="26" as="geometry" />
        </mxCell>
        <mxCell id="jrWxWCdQOSVb__26DyWI-20" value="+ setMapSize(int[ , ])&amp;nbsp;: int[ , ]&lt;div&gt;&lt;br&gt;&lt;/div&gt;" style="text;html=1;strokeColor=none;fillColor=none;align=left;verticalAlign=top;spacingLeft=4;spacingRight=4;whiteSpace=wrap;overflow=hidden;rotatable=0;points=[[0,0.5],[1,0.5]];portConstraint=eastwest;" vertex="1" parent="qDR1dN11LgxM--blbOob-63">
          <mxGeometry y="106" width="178" height="26" as="geometry" />
        </mxCell>
        <mxCell id="qDR1dN11LgxM--blbOob-80" value="" style="endArrow=diamondThin;endFill=1;endSize=24;html=1;rounded=0;edgeStyle=orthogonalEdgeStyle;exitX=0.294;exitY=-0.007;exitDx=0;exitDy=0;exitPerimeter=0;" edge="1" parent="1">
          <mxGeometry width="160" relative="1" as="geometry">
            <mxPoint x="92.332" y="-399.99999999999994" as="sourcePoint" />
            <mxPoint x="510" y="-700" as="targetPoint" />
            <Array as="points">
              <mxPoint x="90" y="-400" />
              <mxPoint x="90" y="-517" />
              <mxPoint x="510" y="-517" />
            </Array>
          </mxGeometry>
        </mxCell>
        <mxCell id="qDR1dN11LgxM--blbOob-81" value="" style="endArrow=diamondThin;endFill=1;endSize=24;html=1;rounded=0;edgeStyle=elbowEdgeStyle;elbow=vertical;" edge="1" parent="1">
          <mxGeometry width="160" relative="1" as="geometry">
            <mxPoint x="1040" y="-200" as="sourcePoint" />
            <mxPoint x="550" y="-700" as="targetPoint" />
            <Array as="points">
              <mxPoint x="910" y="-520" />
            </Array>
          </mxGeometry>
        </mxCell>
        <mxCell id="qDR1dN11LgxM--blbOob-82" value="" style="endArrow=none;html=1;rounded=0;edgeStyle=elbowEdgeStyle;elbow=vertical;exitX=0.466;exitY=-0.018;exitDx=0;exitDy=0;exitPerimeter=0;" edge="1" parent="1" source="78961159f06e98e8-95">
          <mxGeometry width="50" height="50" relative="1" as="geometry">
            <mxPoint x="850" y="-180" as="sourcePoint" />
            <mxPoint x="1040" y="-200" as="targetPoint" />
            <Array as="points">
              <mxPoint x="950" y="-200" />
            </Array>
          </mxGeometry>
        </mxCell>
        <mxCell id="qDR1dN11LgxM--blbOob-85" value="&amp;lt;&amp;lt;Abstract&amp;gt;&amp;gt;&lt;br&gt;Person" style="swimlane;html=1;fontStyle=1;align=center;verticalAlign=top;childLayout=stackLayout;horizontal=1;startSize=40;horizontalStack=0;resizeParent=1;resizeLast=0;collapsible=1;marginBottom=0;swimlaneFillColor=#ffffff;rounded=0;shadow=0;comic=0;labelBackgroundColor=none;strokeWidth=1;fillColor=none;fontFamily=Verdana;fontSize=12" vertex="1" parent="1">
          <mxGeometry x="1180" y="-520" width="178" height="326" as="geometry" />
        </mxCell>
        <mxCell id="qDR1dN11LgxM--blbOob-86" value="# hp: Hp" style="text;html=1;strokeColor=none;fillColor=none;align=left;verticalAlign=top;spacingLeft=4;spacingRight=4;whiteSpace=wrap;overflow=hidden;rotatable=0;points=[[0,0.5],[1,0.5]];portConstraint=eastwest;" vertex="1" parent="qDR1dN11LgxM--blbOob-85">
          <mxGeometry y="40" width="178" height="26" as="geometry" />
        </mxCell>
        <mxCell id="qDR1dN11LgxM--blbOob-87" value="# name: String" style="text;html=1;strokeColor=none;fillColor=none;align=left;verticalAlign=top;spacingLeft=4;spacingRight=4;whiteSpace=wrap;overflow=hidden;rotatable=0;points=[[0,0.5],[1,0.5]];portConstraint=eastwest;" vertex="1" parent="qDR1dN11LgxM--blbOob-85">
          <mxGeometry y="66" width="178" height="26" as="geometry" />
        </mxCell>
        <mxCell id="qDR1dN11LgxM--blbOob-88" value="# type: String" style="text;html=1;strokeColor=none;fillColor=none;align=left;verticalAlign=top;spacingLeft=4;spacingRight=4;whiteSpace=wrap;overflow=hidden;rotatable=0;points=[[0,0.5],[1,0.5]];portConstraint=eastwest;" vertex="1" parent="qDR1dN11LgxM--blbOob-85">
          <mxGeometry y="92" width="178" height="26" as="geometry" />
        </mxCell>
        <mxCell id="qDR1dN11LgxM--blbOob-89" value="# damage: int" style="text;html=1;strokeColor=none;fillColor=none;align=left;verticalAlign=top;spacingLeft=4;spacingRight=4;whiteSpace=wrap;overflow=hidden;rotatable=0;points=[[0,0.5],[1,0.5]];portConstraint=eastwest;" vertex="1" parent="qDR1dN11LgxM--blbOob-85">
          <mxGeometry y="118" width="178" height="26" as="geometry" />
        </mxCell>
        <mxCell id="qDR1dN11LgxM--blbOob-90" value="# location_type: int&lt;div&gt;&lt;br&gt;&lt;/div&gt;" style="text;html=1;strokeColor=none;fillColor=none;align=left;verticalAlign=top;spacingLeft=4;spacingRight=4;whiteSpace=wrap;overflow=hidden;rotatable=0;points=[[0,0.5],[1,0.5]];portConstraint=eastwest;" vertex="1" parent="qDR1dN11LgxM--blbOob-85">
          <mxGeometry y="144" width="178" height="26" as="geometry" />
        </mxCell>
        <mxCell id="qDR1dN11LgxM--blbOob-91" value="# location_array: Map&lt;div&gt;&lt;br&gt;&lt;/div&gt;" style="text;html=1;strokeColor=none;fillColor=none;align=left;verticalAlign=top;spacingLeft=4;spacingRight=4;whiteSpace=wrap;overflow=hidden;rotatable=0;points=[[0,0.5],[1,0.5]];portConstraint=eastwest;" vertex="1" parent="qDR1dN11LgxM--blbOob-85">
          <mxGeometry y="170" width="178" height="26" as="geometry" />
        </mxCell>
        <mxCell id="qDR1dN11LgxM--blbOob-92" value="# spawn_locationX: Map&lt;div&gt;&lt;br&gt;&lt;/div&gt;" style="text;html=1;strokeColor=none;fillColor=none;align=left;verticalAlign=top;spacingLeft=4;spacingRight=4;whiteSpace=wrap;overflow=hidden;rotatable=0;points=[[0,0.5],[1,0.5]];portConstraint=eastwest;" vertex="1" parent="qDR1dN11LgxM--blbOob-85">
          <mxGeometry y="196" width="178" height="26" as="geometry" />
        </mxCell>
        <mxCell id="qDR1dN11LgxM--blbOob-93" value="&lt;div&gt;# spawn_locationY: Map&lt;div&gt;&lt;br&gt;&lt;/div&gt;&lt;/div&gt;" style="text;html=1;strokeColor=none;fillColor=none;align=left;verticalAlign=top;spacingLeft=4;spacingRight=4;whiteSpace=wrap;overflow=hidden;rotatable=0;points=[[0,0.5],[1,0.5]];portConstraint=eastwest;" vertex="1" parent="qDR1dN11LgxM--blbOob-85">
          <mxGeometry y="222" width="178" height="26" as="geometry" />
        </mxCell>
        <mxCell id="qDR1dN11LgxM--blbOob-94" value="&lt;div&gt;# speed: int&lt;/div&gt;&lt;div&gt;&lt;br&gt;&lt;div&gt;&lt;br&gt;&lt;/div&gt;&lt;/div&gt;" style="text;html=1;strokeColor=none;fillColor=none;align=left;verticalAlign=top;spacingLeft=4;spacingRight=4;whiteSpace=wrap;overflow=hidden;rotatable=0;points=[[0,0.5],[1,0.5]];portConstraint=eastwest;" vertex="1" parent="qDR1dN11LgxM--blbOob-85">
          <mxGeometry y="248" width="178" height="26" as="geometry" />
        </mxCell>
        <mxCell id="qDR1dN11LgxM--blbOob-95" value="" style="line;html=1;strokeWidth=1;fillColor=none;align=left;verticalAlign=middle;spacingTop=-1;spacingLeft=3;spacingRight=3;rotatable=0;labelPosition=right;points=[];portConstraint=eastwest;" vertex="1" parent="qDR1dN11LgxM--blbOob-85">
          <mxGeometry y="274" width="178" height="16" as="geometry" />
        </mxCell>
        <mxCell id="qDR1dN11LgxM--blbOob-97" value="# move: void" style="text;html=1;strokeColor=none;fillColor=none;align=left;verticalAlign=top;spacingLeft=4;spacingRight=4;whiteSpace=wrap;overflow=hidden;rotatable=0;points=[[0,0.5],[1,0.5]];portConstraint=eastwest;" vertex="1" parent="qDR1dN11LgxM--blbOob-85">
          <mxGeometry y="290" width="178" height="36" as="geometry" />
        </mxCell>
        <mxCell id="qDR1dN11LgxM--blbOob-98" style="edgeStyle=orthogonalEdgeStyle;rounded=0;orthogonalLoop=1;jettySize=auto;html=1;exitX=1;exitY=0.5;exitDx=0;exitDy=0;" edge="1" parent="qDR1dN11LgxM--blbOob-85" source="qDR1dN11LgxM--blbOob-90" target="qDR1dN11LgxM--blbOob-90">
          <mxGeometry relative="1" as="geometry" />
        </mxCell>
        <mxCell id="qDR1dN11LgxM--blbOob-99" value="Ghost" style="swimlane;html=1;fontStyle=1;align=center;verticalAlign=top;childLayout=stackLayout;horizontal=1;startSize=26;horizontalStack=0;resizeParent=1;resizeLast=0;collapsible=1;marginBottom=0;swimlaneFillColor=#ffffff;rounded=0;shadow=0;comic=0;labelBackgroundColor=none;strokeWidth=1;fillColor=none;fontFamily=Verdana;fontSize=12" vertex="1" parent="1">
          <mxGeometry x="960" y="250" width="180" height="90" as="geometry" />
        </mxCell>
        <mxCell id="qDR1dN11LgxM--blbOob-101" value="-maxnumber_ghost: int" style="text;html=1;strokeColor=none;fillColor=none;align=left;verticalAlign=top;spacingLeft=4;spacingRight=4;whiteSpace=wrap;overflow=hidden;rotatable=0;points=[[0,0.5],[1,0.5]];portConstraint=eastwest;" vertex="1" parent="qDR1dN11LgxM--blbOob-99">
          <mxGeometry y="26" width="180" height="26" as="geometry" />
        </mxCell>
        <mxCell id="qDR1dN11LgxM--blbOob-100" value="" style="line;html=1;strokeWidth=1;fillColor=none;align=left;verticalAlign=middle;spacingTop=-1;spacingLeft=3;spacingRight=3;rotatable=0;labelPosition=right;points=[];portConstraint=eastwest;" vertex="1" parent="qDR1dN11LgxM--blbOob-99">
          <mxGeometry y="52" width="180" height="8" as="geometry" />
        </mxCell>
        <mxCell id="qDR1dN11LgxM--blbOob-103" value="-randomPlace: void" style="text;html=1;strokeColor=none;fillColor=none;align=left;verticalAlign=top;spacingLeft=4;spacingRight=4;whiteSpace=wrap;overflow=hidden;rotatable=0;points=[[0,0.5],[1,0.5]];portConstraint=eastwest;" vertex="1" parent="qDR1dN11LgxM--blbOob-99">
          <mxGeometry y="60" width="180" height="26" as="geometry" />
        </mxCell>
        <mxCell id="qDR1dN11LgxM--blbOob-105" value="Extends" style="endArrow=block;endSize=16;endFill=0;html=1;rounded=0;edgeStyle=elbowEdgeStyle;elbow=vertical;exitX=0.141;exitY=-0.009;exitDx=0;exitDy=0;exitPerimeter=0;" edge="1" parent="1" source="qDR1dN11LgxM--blbOob-99">
          <mxGeometry x="0.0096" width="160" relative="1" as="geometry">
            <mxPoint x="1041.42" y="248.55999999999995" as="sourcePoint" />
            <mxPoint x="780" y="180" as="targetPoint" />
            <mxPoint as="offset" />
            <Array as="points">
              <mxPoint x="890" y="210" />
            </Array>
          </mxGeometry>
        </mxCell>
        <mxCell id="qDR1dN11LgxM--blbOob-106" value="Percy" style="swimlane;html=1;fontStyle=1;align=center;verticalAlign=top;childLayout=stackLayout;horizontal=1;startSize=30;horizontalStack=0;resizeParent=1;resizeLast=0;collapsible=1;marginBottom=0;swimlaneFillColor=#ffffff;rounded=0;shadow=0;comic=0;labelBackgroundColor=none;strokeWidth=1;fillColor=none;fontFamily=Verdana;fontSize=12" vertex="1" parent="1">
          <mxGeometry x="1400" y="-483" width="180" height="173" as="geometry" />
        </mxCell>
        <mxCell id="qDR1dN11LgxM--blbOob-108" value="" style="line;html=1;strokeWidth=1;fillColor=none;align=left;verticalAlign=middle;spacingTop=-1;spacingLeft=3;spacingRight=3;rotatable=0;labelPosition=right;points=[];portConstraint=eastwest;" vertex="1" parent="qDR1dN11LgxM--blbOob-106">
          <mxGeometry y="30" width="180" height="14" as="geometry" />
        </mxCell>
        <mxCell id="qDR1dN11LgxM--blbOob-109" value="- isGettingHit: bool" style="text;html=1;strokeColor=none;fillColor=none;align=left;verticalAlign=top;spacingLeft=4;spacingRight=4;whiteSpace=wrap;overflow=hidden;rotatable=0;points=[[0,0.5],[1,0.5]];portConstraint=eastwest;" vertex="1" parent="qDR1dN11LgxM--blbOob-106">
          <mxGeometry y="44" width="180" height="24" as="geometry" />
        </mxCell>
        <mxCell id="qDR1dN11LgxM--blbOob-110" value="- move: void" style="text;html=1;strokeColor=none;fillColor=none;align=left;verticalAlign=top;spacingLeft=4;spacingRight=4;whiteSpace=wrap;overflow=hidden;rotatable=0;points=[[0,0.5],[1,0.5]];portConstraint=eastwest;" vertex="1" parent="qDR1dN11LgxM--blbOob-106">
          <mxGeometry y="68" width="180" height="26" as="geometry" />
        </mxCell>
        <mxCell id="qDR1dN11LgxM--blbOob-111" value="- decreaseHp(bool): void" style="text;html=1;strokeColor=none;fillColor=none;align=left;verticalAlign=top;spacingLeft=4;spacingRight=4;whiteSpace=wrap;overflow=hidden;rotatable=0;points=[[0,0.5],[1,0.5]];portConstraint=eastwest;" vertex="1" parent="qDR1dN11LgxM--blbOob-106">
          <mxGeometry y="94" width="180" height="26" as="geometry" />
        </mxCell>
        <mxCell id="qDR1dN11LgxM--blbOob-112" value="- hit: void" style="text;html=1;strokeColor=none;fillColor=none;align=left;verticalAlign=top;spacingLeft=4;spacingRight=4;whiteSpace=wrap;overflow=hidden;rotatable=0;points=[[0,0.5],[1,0.5]];portConstraint=eastwest;" vertex="1" parent="qDR1dN11LgxM--blbOob-106">
          <mxGeometry y="120" width="180" height="20" as="geometry" />
        </mxCell>
        <mxCell id="qDR1dN11LgxM--blbOob-200" value="-scoreCalculation: Score" style="text;html=1;strokeColor=none;fillColor=none;align=left;verticalAlign=top;spacingLeft=4;spacingRight=4;whiteSpace=wrap;overflow=hidden;rotatable=0;points=[[0,0.5],[1,0.5]];portConstraint=eastwest;" vertex="1" parent="qDR1dN11LgxM--blbOob-106">
          <mxGeometry y="140" width="180" height="20" as="geometry" />
        </mxCell>
        <mxCell id="qDR1dN11LgxM--blbOob-114" value="Annabeth" style="swimlane;html=1;fontStyle=1;align=center;verticalAlign=top;childLayout=stackLayout;horizontal=1;startSize=30;horizontalStack=0;resizeParent=1;resizeLast=0;collapsible=1;marginBottom=0;swimlaneFillColor=#ffffff;rounded=0;shadow=0;comic=0;labelBackgroundColor=none;strokeWidth=1;fillColor=none;fontFamily=Verdana;fontSize=12" vertex="1" parent="1">
          <mxGeometry x="1620" y="-483" width="180" height="123" as="geometry" />
        </mxCell>
        <mxCell id="qDR1dN11LgxM--blbOob-116" value="" style="line;html=1;strokeWidth=1;fillColor=none;align=left;verticalAlign=middle;spacingTop=-1;spacingLeft=3;spacingRight=3;rotatable=0;labelPosition=right;points=[];portConstraint=eastwest;" vertex="1" parent="qDR1dN11LgxM--blbOob-114">
          <mxGeometry y="30" width="180" height="14" as="geometry" />
        </mxCell>
        <mxCell id="qDR1dN11LgxM--blbOob-118" value="- saved: void" style="text;html=1;strokeColor=none;fillColor=none;align=left;verticalAlign=top;spacingLeft=4;spacingRight=4;whiteSpace=wrap;overflow=hidden;rotatable=0;points=[[0,0.5],[1,0.5]];portConstraint=eastwest;" vertex="1" parent="qDR1dN11LgxM--blbOob-114">
          <mxGeometry y="44" width="180" height="26" as="geometry" />
        </mxCell>
        <mxCell id="qDR1dN11LgxM--blbOob-126" value="- isSaved: void" style="text;html=1;strokeColor=none;fillColor=none;align=left;verticalAlign=top;spacingLeft=4;spacingRight=4;whiteSpace=wrap;overflow=hidden;rotatable=0;points=[[0,0.5],[1,0.5]];portConstraint=eastwest;" vertex="1" parent="qDR1dN11LgxM--blbOob-114">
          <mxGeometry y="70" width="180" height="26" as="geometry" />
        </mxCell>
        <mxCell id="qDR1dN11LgxM--blbOob-127" value="- inPrison: void" style="text;html=1;strokeColor=none;fillColor=none;align=left;verticalAlign=top;spacingLeft=4;spacingRight=4;whiteSpace=wrap;overflow=hidden;rotatable=0;points=[[0,0.5],[1,0.5]];portConstraint=eastwest;" vertex="1" parent="qDR1dN11LgxM--blbOob-114">
          <mxGeometry y="96" width="180" height="26" as="geometry" />
        </mxCell>
        <mxCell id="qDR1dN11LgxM--blbOob-128" value="Extends" style="endArrow=block;endSize=16;endFill=0;html=1;rounded=0;entryX=0.5;entryY=0;entryDx=0;entryDy=0;edgeStyle=elbowEdgeStyle;elbow=vertical;exitX=0.712;exitY=0.001;exitDx=0;exitDy=0;exitPerimeter=0;" edge="1" parent="1" source="qDR1dN11LgxM--blbOob-106" target="qDR1dN11LgxM--blbOob-85">
          <mxGeometry x="0.0673" width="160" relative="1" as="geometry">
            <mxPoint x="1630" y="-490" as="sourcePoint" />
            <mxPoint x="1252" y="-558.1600000000001" as="targetPoint" />
            <Array as="points">
              <mxPoint x="1430" y="-560" />
            </Array>
            <mxPoint as="offset" />
          </mxGeometry>
        </mxCell>
        <mxCell id="qDR1dN11LgxM--blbOob-129" value="Extends" style="endArrow=block;endSize=16;endFill=0;html=1;rounded=0;entryX=0.75;entryY=0;entryDx=0;entryDy=0;edgeStyle=elbowEdgeStyle;elbow=vertical;exitX=0.566;exitY=0.008;exitDx=0;exitDy=0;exitPerimeter=0;" edge="1" parent="1" source="qDR1dN11LgxM--blbOob-114" target="qDR1dN11LgxM--blbOob-85">
          <mxGeometry x="0.0673" width="160" relative="1" as="geometry">
            <mxPoint x="1840" y="-490" as="sourcePoint" />
            <mxPoint x="1320" y="-530" as="targetPoint" />
            <Array as="points">
              <mxPoint x="1580" y="-540" />
            </Array>
            <mxPoint as="offset" />
          </mxGeometry>
        </mxCell>
        <mxCell id="qDR1dN11LgxM--blbOob-130" value="" style="endArrow=diamondThin;endFill=1;endSize=24;html=1;rounded=0;edgeStyle=elbowEdgeStyle;elbow=vertical;exitX=0.323;exitY=0.004;exitDx=0;exitDy=0;exitPerimeter=0;" edge="1" parent="1" source="qDR1dN11LgxM--blbOob-85">
          <mxGeometry width="160" relative="1" as="geometry">
            <mxPoint x="1240" y="-530" as="sourcePoint" />
            <mxPoint x="590" y="-700" as="targetPoint" />
            <Array as="points">
              <mxPoint x="840" y="-570" />
            </Array>
          </mxGeometry>
        </mxCell>
        <mxCell id="qDR1dN11LgxM--blbOob-131" value="&amp;lt;&amp;lt;Abstract&amp;gt;&amp;gt;&lt;br&gt;Hp" style="swimlane;html=1;fontStyle=1;align=center;verticalAlign=top;childLayout=stackLayout;horizontal=1;startSize=40;horizontalStack=0;resizeParent=1;resizeLast=0;collapsible=1;marginBottom=0;swimlaneFillColor=#ffffff;rounded=0;shadow=0;comic=0;labelBackgroundColor=none;strokeWidth=1;fillColor=none;fontFamily=Verdana;fontSize=12" vertex="1" parent="1">
          <mxGeometry x="40" y="360" width="178" height="330" as="geometry" />
        </mxCell>
        <mxCell id="qDR1dN11LgxM--blbOob-137" value="- location_array: Map&lt;div&gt;&lt;br&gt;&lt;/div&gt;" style="text;html=1;strokeColor=none;fillColor=none;align=left;verticalAlign=top;spacingLeft=4;spacingRight=4;whiteSpace=wrap;overflow=hidden;rotatable=0;points=[[0,0.5],[1,0.5]];portConstraint=eastwest;" vertex="1" parent="qDR1dN11LgxM--blbOob-131">
          <mxGeometry y="40" width="178" height="26" as="geometry" />
        </mxCell>
        <mxCell id="qDR1dN11LgxM--blbOob-138" value="- spawn_locationX: Map&lt;div&gt;&lt;br&gt;&lt;/div&gt;" style="text;html=1;strokeColor=none;fillColor=none;align=left;verticalAlign=top;spacingLeft=4;spacingRight=4;whiteSpace=wrap;overflow=hidden;rotatable=0;points=[[0,0.5],[1,0.5]];portConstraint=eastwest;" vertex="1" parent="qDR1dN11LgxM--blbOob-131">
          <mxGeometry y="66" width="178" height="26" as="geometry" />
        </mxCell>
        <mxCell id="qDR1dN11LgxM--blbOob-139" value="&lt;div&gt;- spawn_locationY: Map&lt;div&gt;&lt;br&gt;&lt;/div&gt;&lt;/div&gt;" style="text;html=1;strokeColor=none;fillColor=none;align=left;verticalAlign=top;spacingLeft=4;spacingRight=4;whiteSpace=wrap;overflow=hidden;rotatable=0;points=[[0,0.5],[1,0.5]];portConstraint=eastwest;" vertex="1" parent="qDR1dN11LgxM--blbOob-131">
          <mxGeometry y="92" width="178" height="26" as="geometry" />
        </mxCell>
        <mxCell id="qDR1dN11LgxM--blbOob-140" value="&lt;div&gt;- totalhp: int&lt;/div&gt;&lt;div&gt;&lt;br&gt;&lt;div&gt;&lt;br&gt;&lt;/div&gt;&lt;/div&gt;" style="text;html=1;strokeColor=none;fillColor=none;align=left;verticalAlign=top;spacingLeft=4;spacingRight=4;whiteSpace=wrap;overflow=hidden;rotatable=0;points=[[0,0.5],[1,0.5]];portConstraint=eastwest;" vertex="1" parent="qDR1dN11LgxM--blbOob-131">
          <mxGeometry y="118" width="178" height="26" as="geometry" />
        </mxCell>
        <mxCell id="qDR1dN11LgxM--blbOob-141" value="" style="line;html=1;strokeWidth=1;fillColor=none;align=left;verticalAlign=middle;spacingTop=-1;spacingLeft=3;spacingRight=3;rotatable=0;labelPosition=right;points=[];portConstraint=eastwest;" vertex="1" parent="qDR1dN11LgxM--blbOob-131">
          <mxGeometry y="144" width="178" height="16" as="geometry" />
        </mxCell>
        <mxCell id="qDR1dN11LgxM--blbOob-144" style="edgeStyle=orthogonalEdgeStyle;rounded=0;orthogonalLoop=1;jettySize=auto;html=1;exitX=1;exitY=0.5;exitDx=0;exitDy=0;" edge="1" parent="qDR1dN11LgxM--blbOob-131">
          <mxGeometry relative="1" as="geometry">
            <mxPoint x="178" y="53" as="sourcePoint" />
            <mxPoint x="178" y="53" as="targetPoint" />
          </mxGeometry>
        </mxCell>
        <mxCell id="jrWxWCdQOSVb__26DyWI-23" value="+ getLocationArray: void" style="text;html=1;strokeColor=none;fillColor=none;align=left;verticalAlign=top;spacingLeft=4;spacingRight=4;whiteSpace=wrap;overflow=hidden;rotatable=0;points=[[0,0.5],[1,0.5]];portConstraint=eastwest;" vertex="1" parent="qDR1dN11LgxM--blbOob-131">
          <mxGeometry y="160" width="178" height="20" as="geometry" />
        </mxCell>
        <mxCell id="jrWxWCdQOSVb__26DyWI-24" value="+ setLocationArray(Map): Map" style="text;html=1;strokeColor=none;fillColor=none;align=left;verticalAlign=top;spacingLeft=4;spacingRight=4;whiteSpace=wrap;overflow=hidden;rotatable=0;points=[[0,0.5],[1,0.5]];portConstraint=eastwest;" vertex="1" parent="qDR1dN11LgxM--blbOob-131">
          <mxGeometry y="180" width="178" height="20" as="geometry" />
        </mxCell>
        <mxCell id="jrWxWCdQOSVb__26DyWI-25" value="+ getSpawnLocationX: void" style="text;html=1;strokeColor=none;fillColor=none;align=left;verticalAlign=top;spacingLeft=4;spacingRight=4;whiteSpace=wrap;overflow=hidden;rotatable=0;points=[[0,0.5],[1,0.5]];portConstraint=eastwest;" vertex="1" parent="qDR1dN11LgxM--blbOob-131">
          <mxGeometry y="200" width="178" height="20" as="geometry" />
        </mxCell>
        <mxCell id="jrWxWCdQOSVb__26DyWI-26" value="+ setSpawnLocationX(Map): Map" style="text;html=1;strokeColor=none;fillColor=none;align=left;verticalAlign=top;spacingLeft=4;spacingRight=4;whiteSpace=wrap;overflow=hidden;rotatable=0;points=[[0,0.5],[1,0.5]];portConstraint=eastwest;" vertex="1" parent="qDR1dN11LgxM--blbOob-131">
          <mxGeometry y="220" width="178" height="20" as="geometry" />
        </mxCell>
        <mxCell id="jrWxWCdQOSVb__26DyWI-27" value="+ getSpawnLocationY: void" style="text;html=1;strokeColor=none;fillColor=none;align=left;verticalAlign=top;spacingLeft=4;spacingRight=4;whiteSpace=wrap;overflow=hidden;rotatable=0;points=[[0,0.5],[1,0.5]];portConstraint=eastwest;" vertex="1" parent="qDR1dN11LgxM--blbOob-131">
          <mxGeometry y="240" width="178" height="20" as="geometry" />
        </mxCell>
        <mxCell id="jrWxWCdQOSVb__26DyWI-28" value="+ setSpawnLocationY(Map): Map" style="text;html=1;strokeColor=none;fillColor=none;align=left;verticalAlign=top;spacingLeft=4;spacingRight=4;whiteSpace=wrap;overflow=hidden;rotatable=0;points=[[0,0.5],[1,0.5]];portConstraint=eastwest;" vertex="1" parent="qDR1dN11LgxM--blbOob-131">
          <mxGeometry y="260" width="178" height="20" as="geometry" />
        </mxCell>
        <mxCell id="jrWxWCdQOSVb__26DyWI-29" value="+ getTotalHp: void" style="text;html=1;strokeColor=none;fillColor=none;align=left;verticalAlign=top;spacingLeft=4;spacingRight=4;whiteSpace=wrap;overflow=hidden;rotatable=0;points=[[0,0.5],[1,0.5]];portConstraint=eastwest;" vertex="1" parent="qDR1dN11LgxM--blbOob-131">
          <mxGeometry y="280" width="178" height="20" as="geometry" />
        </mxCell>
        <mxCell id="jrWxWCdQOSVb__26DyWI-30" value="+ setTotalHp(int): int" style="text;html=1;strokeColor=none;fillColor=none;align=left;verticalAlign=top;spacingLeft=4;spacingRight=4;whiteSpace=wrap;overflow=hidden;rotatable=0;points=[[0,0.5],[1,0.5]];portConstraint=eastwest;" vertex="1" parent="qDR1dN11LgxM--blbOob-131">
          <mxGeometry y="300" width="178" height="20" as="geometry" />
        </mxCell>
        <mxCell id="qDR1dN11LgxM--blbOob-145" value="" style="endArrow=diamondThin;endFill=1;endSize=24;html=1;rounded=0;entryX=0.449;entryY=0;entryDx=0;entryDy=0;entryPerimeter=0;" edge="1" parent="1" target="qDR1dN11LgxM--blbOob-131">
          <mxGeometry width="160" relative="1" as="geometry">
            <mxPoint x="120" y="300" as="sourcePoint" />
            <mxPoint x="119" y="80" as="targetPoint" />
          </mxGeometry>
        </mxCell>
        <mxCell id="qDR1dN11LgxM--blbOob-146" value="" style="endArrow=diamondThin;endFill=1;endSize=24;html=1;rounded=0;edgeStyle=orthogonalEdgeStyle;entryX=0.627;entryY=0.008;entryDx=0;entryDy=0;entryPerimeter=0;" edge="1" parent="1" target="qDR1dN11LgxM--blbOob-131">
          <mxGeometry width="160" relative="1" as="geometry">
            <mxPoint x="320" y="480" as="sourcePoint" />
            <mxPoint x="160" y="80" as="targetPoint" />
            <Array as="points">
              <mxPoint x="320" y="310" />
              <mxPoint x="152" y="310" />
            </Array>
          </mxGeometry>
        </mxCell>
        <mxCell id="qDR1dN11LgxM--blbOob-147" value="" style="endArrow=none;html=1;rounded=0;edgeStyle=orthogonalEdgeStyle;" edge="1" parent="1">
          <mxGeometry width="50" height="50" relative="1" as="geometry">
            <mxPoint x="320" y="480" as="sourcePoint" />
            <mxPoint x="1280" y="-120" as="targetPoint" />
            <Array as="points">
              <mxPoint x="1281" y="481" />
              <mxPoint x="1281" y="-120" />
            </Array>
          </mxGeometry>
        </mxCell>
        <mxCell id="qDR1dN11LgxM--blbOob-148" value="" style="endArrow=none;html=1;rounded=0;edgeStyle=orthogonalEdgeStyle;" edge="1" parent="1">
          <mxGeometry width="50" height="50" relative="1" as="geometry">
            <mxPoint x="1120" y="-130" as="sourcePoint" />
            <mxPoint x="1280" y="-120" as="targetPoint" />
          </mxGeometry>
        </mxCell>
        <mxCell id="qDR1dN11LgxM--blbOob-149" value="" style="endArrow=none;html=1;rounded=0;" edge="1" parent="1">
          <mxGeometry width="50" height="50" relative="1" as="geometry">
            <mxPoint x="1120" y="-130" as="sourcePoint" />
            <mxPoint x="1120" y="-540" as="targetPoint" />
          </mxGeometry>
        </mxCell>
        <mxCell id="qDR1dN11LgxM--blbOob-150" value="" style="endArrow=none;html=1;rounded=0;edgeStyle=orthogonalEdgeStyle;entryX=0.225;entryY=0.002;entryDx=0;entryDy=0;entryPerimeter=0;" edge="1" parent="1" target="qDR1dN11LgxM--blbOob-85">
          <mxGeometry width="50" height="50" relative="1" as="geometry">
            <mxPoint x="1120" y="-540" as="sourcePoint" />
            <mxPoint x="1220" y="-540" as="targetPoint" />
            <Array as="points">
              <mxPoint x="1120" y="-539" />
              <mxPoint x="1220" y="-539" />
            </Array>
          </mxGeometry>
        </mxCell>
        <mxCell id="qDR1dN11LgxM--blbOob-157" value="Time" style="swimlane;html=1;fontStyle=1;align=center;verticalAlign=top;childLayout=stackLayout;horizontal=1;startSize=26;horizontalStack=0;resizeParent=1;resizeLast=0;collapsible=1;marginBottom=0;swimlaneFillColor=#ffffff;rounded=0;shadow=0;comic=0;labelBackgroundColor=none;strokeWidth=1;fillColor=none;fontFamily=Verdana;fontSize=12" vertex="1" parent="1">
          <mxGeometry x="430" y="-54" width="180" height="90" as="geometry" />
        </mxCell>
        <mxCell id="qDR1dN11LgxM--blbOob-159" value="" style="line;html=1;strokeWidth=1;fillColor=none;align=left;verticalAlign=middle;spacingTop=-1;spacingLeft=3;spacingRight=3;rotatable=0;labelPosition=right;points=[];portConstraint=eastwest;" vertex="1" parent="qDR1dN11LgxM--blbOob-157">
          <mxGeometry y="26" width="180" height="8" as="geometry" />
        </mxCell>
        <mxCell id="qDR1dN11LgxM--blbOob-160" value="+ totalTime: void" style="text;html=1;strokeColor=none;fillColor=none;align=left;verticalAlign=top;spacingLeft=4;spacingRight=4;whiteSpace=wrap;overflow=hidden;rotatable=0;points=[[0,0.5],[1,0.5]];portConstraint=eastwest;" vertex="1" parent="qDR1dN11LgxM--blbOob-157">
          <mxGeometry y="34" width="180" height="26" as="geometry" />
        </mxCell>
        <mxCell id="qDR1dN11LgxM--blbOob-163" value="" style="endArrow=diamondThin;endFill=1;endSize=24;html=1;rounded=0;entryX=0.526;entryY=0.006;entryDx=0;entryDy=0;entryPerimeter=0;" edge="1" parent="1" target="qDR1dN11LgxM--blbOob-157">
          <mxGeometry width="160" relative="1" as="geometry">
            <mxPoint x="525" y="-110" as="sourcePoint" />
            <mxPoint x="524" y="-70" as="targetPoint" />
          </mxGeometry>
        </mxCell>
        <mxCell id="qDR1dN11LgxM--blbOob-164" value="Main" style="swimlane;html=1;fontStyle=1;align=center;verticalAlign=top;childLayout=stackLayout;horizontal=1;startSize=30;horizontalStack=0;resizeParent=1;resizeLast=0;collapsible=1;marginBottom=0;swimlaneFillColor=#ffffff;rounded=0;shadow=0;comic=0;labelBackgroundColor=none;strokeWidth=1;fillColor=none;fontFamily=Verdana;fontSize=12" vertex="1" parent="1">
          <mxGeometry x="1770" y="-230" width="180" height="80" as="geometry" />
        </mxCell>
        <mxCell id="qDR1dN11LgxM--blbOob-165" value="" style="line;html=1;strokeWidth=1;fillColor=none;align=left;verticalAlign=middle;spacingTop=-1;spacingLeft=3;spacingRight=3;rotatable=0;labelPosition=right;points=[];portConstraint=eastwest;" vertex="1" parent="qDR1dN11LgxM--blbOob-164">
          <mxGeometry y="30" width="180" height="14" as="geometry" />
        </mxCell>
        <mxCell id="qDR1dN11LgxM--blbOob-166" value="+ Main: void" style="text;html=1;strokeColor=none;fillColor=none;align=left;verticalAlign=top;spacingLeft=4;spacingRight=4;whiteSpace=wrap;overflow=hidden;rotatable=0;points=[[0,0.5],[1,0.5]];portConstraint=eastwest;" vertex="1" parent="qDR1dN11LgxM--blbOob-164">
          <mxGeometry y="44" width="180" height="26" as="geometry" />
        </mxCell>
        <mxCell id="qDR1dN11LgxM--blbOob-169" value="MapOne" style="swimlane;html=1;fontStyle=1;align=center;verticalAlign=top;childLayout=stackLayout;horizontal=1;startSize=30;horizontalStack=0;resizeParent=1;resizeLast=0;collapsible=1;marginBottom=0;swimlaneFillColor=#ffffff;rounded=0;shadow=0;comic=0;labelBackgroundColor=none;strokeWidth=1;fillColor=none;fontFamily=Verdana;fontSize=12" vertex="1" parent="1">
          <mxGeometry x="1650" y="-20" width="180" height="130" as="geometry" />
        </mxCell>
        <mxCell id="qDR1dN11LgxM--blbOob-170" value="" style="line;html=1;strokeWidth=1;fillColor=none;align=left;verticalAlign=middle;spacingTop=-1;spacingLeft=3;spacingRight=3;rotatable=0;labelPosition=right;points=[];portConstraint=eastwest;" vertex="1" parent="qDR1dN11LgxM--blbOob-169">
          <mxGeometry y="30" width="180" height="14" as="geometry" />
        </mxCell>
        <mxCell id="qDR1dN11LgxM--blbOob-171" value="-storyWorld: void" style="text;html=1;strokeColor=none;fillColor=none;align=left;verticalAlign=top;spacingLeft=4;spacingRight=4;whiteSpace=wrap;overflow=hidden;rotatable=0;points=[[0,0.5],[1,0.5]];portConstraint=eastwest;" vertex="1" parent="qDR1dN11LgxM--blbOob-169">
          <mxGeometry y="44" width="180" height="26" as="geometry" />
        </mxCell>
        <mxCell id="qDR1dN11LgxM--blbOob-172" value="-storyMedusa: void" style="text;html=1;strokeColor=none;fillColor=none;align=left;verticalAlign=top;spacingLeft=4;spacingRight=4;whiteSpace=wrap;overflow=hidden;rotatable=0;points=[[0,0.5],[1,0.5]];portConstraint=eastwest;" vertex="1" parent="qDR1dN11LgxM--blbOob-169">
          <mxGeometry y="70" width="180" height="26" as="geometry" />
        </mxCell>
        <mxCell id="qDR1dN11LgxM--blbOob-173" value="- keyboardStart: void" style="text;html=1;strokeColor=none;fillColor=none;align=left;verticalAlign=top;spacingLeft=4;spacingRight=4;whiteSpace=wrap;overflow=hidden;rotatable=0;points=[[0,0.5],[1,0.5]];portConstraint=eastwest;" vertex="1" parent="qDR1dN11LgxM--blbOob-169">
          <mxGeometry y="96" width="180" height="26" as="geometry" />
        </mxCell>
        <mxCell id="qDR1dN11LgxM--blbOob-174" value="MapTwo" style="swimlane;html=1;fontStyle=1;align=center;verticalAlign=top;childLayout=stackLayout;horizontal=1;startSize=30;horizontalStack=0;resizeParent=1;resizeLast=0;collapsible=1;marginBottom=0;swimlaneFillColor=#ffffff;rounded=0;shadow=0;comic=0;labelBackgroundColor=none;strokeWidth=1;fillColor=none;fontFamily=Verdana;fontSize=12" vertex="1" parent="1">
          <mxGeometry x="1920" y="-20" width="180" height="123" as="geometry" />
        </mxCell>
        <mxCell id="qDR1dN11LgxM--blbOob-175" value="" style="line;html=1;strokeWidth=1;fillColor=none;align=left;verticalAlign=middle;spacingTop=-1;spacingLeft=3;spacingRight=3;rotatable=0;labelPosition=right;points=[];portConstraint=eastwest;" vertex="1" parent="qDR1dN11LgxM--blbOob-174">
          <mxGeometry y="30" width="180" height="14" as="geometry" />
        </mxCell>
        <mxCell id="qDR1dN11LgxM--blbOob-176" value="-storyWorld: void" style="text;html=1;strokeColor=none;fillColor=none;align=left;verticalAlign=top;spacingLeft=4;spacingRight=4;whiteSpace=wrap;overflow=hidden;rotatable=0;points=[[0,0.5],[1,0.5]];portConstraint=eastwest;" vertex="1" parent="qDR1dN11LgxM--blbOob-174">
          <mxGeometry y="44" width="180" height="26" as="geometry" />
        </mxCell>
        <mxCell id="qDR1dN11LgxM--blbOob-177" value="-storyEnd: void" style="text;html=1;strokeColor=none;fillColor=none;align=left;verticalAlign=top;spacingLeft=4;spacingRight=4;whiteSpace=wrap;overflow=hidden;rotatable=0;points=[[0,0.5],[1,0.5]];portConstraint=eastwest;" vertex="1" parent="qDR1dN11LgxM--blbOob-174">
          <mxGeometry y="70" width="180" height="26" as="geometry" />
        </mxCell>
        <mxCell id="qDR1dN11LgxM--blbOob-178" value="- keyboardStart: void" style="text;html=1;strokeColor=none;fillColor=none;align=left;verticalAlign=top;spacingLeft=4;spacingRight=4;whiteSpace=wrap;overflow=hidden;rotatable=0;points=[[0,0.5],[1,0.5]];portConstraint=eastwest;" vertex="1" parent="qDR1dN11LgxM--blbOob-174">
          <mxGeometry y="96" width="180" height="26" as="geometry" />
        </mxCell>
        <mxCell id="qDR1dN11LgxM--blbOob-179" value="" style="endArrow=block;endFill=1;html=1;edgeStyle=orthogonalEdgeStyle;align=left;verticalAlign=top;rounded=0;entryX=0.5;entryY=0;entryDx=0;entryDy=0;" edge="1" parent="1" target="qDR1dN11LgxM--blbOob-169">
          <mxGeometry x="0.3043" relative="1" as="geometry">
            <mxPoint x="1840" y="-150" as="sourcePoint" />
            <mxPoint x="1780" y="-50" as="targetPoint" />
            <Array as="points">
              <mxPoint x="1840" y="-130" />
              <mxPoint x="1740" y="-130" />
            </Array>
            <mxPoint as="offset" />
          </mxGeometry>
        </mxCell>
        <mxCell id="qDR1dN11LgxM--blbOob-180" value="1" style="edgeLabel;resizable=0;html=1;align=left;verticalAlign=bottom;" connectable="0" vertex="1" parent="qDR1dN11LgxM--blbOob-179">
          <mxGeometry x="-1" relative="1" as="geometry">
            <mxPoint x="-100" y="50" as="offset" />
          </mxGeometry>
        </mxCell>
        <mxCell id="qDR1dN11LgxM--blbOob-182" value="" style="endArrow=block;endFill=1;html=1;edgeStyle=orthogonalEdgeStyle;align=left;verticalAlign=top;rounded=0;entryX=0.39;entryY=0.016;entryDx=0;entryDy=0;entryPerimeter=0;" edge="1" parent="1" target="qDR1dN11LgxM--blbOob-174">
          <mxGeometry x="0.3043" relative="1" as="geometry">
            <mxPoint x="1880" y="-150" as="sourcePoint" />
            <mxPoint x="1990" y="-30" as="targetPoint" />
            <Array as="points">
              <mxPoint x="1880" y="-130" />
              <mxPoint x="1990" y="-130" />
            </Array>
            <mxPoint as="offset" />
          </mxGeometry>
        </mxCell>
        <mxCell id="qDR1dN11LgxM--blbOob-183" value="1" style="edgeLabel;resizable=0;html=1;align=left;verticalAlign=bottom;" connectable="0" vertex="1" parent="qDR1dN11LgxM--blbOob-182">
          <mxGeometry x="-1" relative="1" as="geometry">
            <mxPoint x="110" y="50" as="offset" />
          </mxGeometry>
        </mxCell>
        <mxCell id="qDR1dN11LgxM--blbOob-186" value="Tree" style="swimlane;html=1;fontStyle=1;align=center;verticalAlign=top;childLayout=stackLayout;horizontal=1;startSize=26;horizontalStack=0;resizeParent=1;resizeLast=0;collapsible=1;marginBottom=0;swimlaneFillColor=#ffffff;rounded=0;shadow=0;comic=0;labelBackgroundColor=none;strokeWidth=1;fillColor=none;fontFamily=Verdana;fontSize=12" vertex="1" parent="1">
          <mxGeometry x="990" y="115" width="180" height="90" as="geometry" />
        </mxCell>
        <mxCell id="qDR1dN11LgxM--blbOob-187" value="-maxnumber_tree: int" style="text;html=1;strokeColor=none;fillColor=none;align=left;verticalAlign=top;spacingLeft=4;spacingRight=4;whiteSpace=wrap;overflow=hidden;rotatable=0;points=[[0,0.5],[1,0.5]];portConstraint=eastwest;" vertex="1" parent="qDR1dN11LgxM--blbOob-186">
          <mxGeometry y="26" width="180" height="26" as="geometry" />
        </mxCell>
        <mxCell id="qDR1dN11LgxM--blbOob-188" value="" style="line;html=1;strokeWidth=1;fillColor=none;align=left;verticalAlign=middle;spacingTop=-1;spacingLeft=3;spacingRight=3;rotatable=0;labelPosition=right;points=[];portConstraint=eastwest;" vertex="1" parent="qDR1dN11LgxM--blbOob-186">
          <mxGeometry y="52" width="180" height="8" as="geometry" />
        </mxCell>
        <mxCell id="qDR1dN11LgxM--blbOob-189" value="-randomPlace: void" style="text;html=1;strokeColor=none;fillColor=none;align=left;verticalAlign=top;spacingLeft=4;spacingRight=4;whiteSpace=wrap;overflow=hidden;rotatable=0;points=[[0,0.5],[1,0.5]];portConstraint=eastwest;" vertex="1" parent="qDR1dN11LgxM--blbOob-186">
          <mxGeometry y="60" width="180" height="26" as="geometry" />
        </mxCell>
        <mxCell id="qDR1dN11LgxM--blbOob-190" value="Extends" style="endArrow=block;endSize=16;endFill=0;html=1;rounded=0;edgeStyle=orthogonalEdgeStyle;elbow=vertical;entryX=0.803;entryY=1.239;entryDx=0;entryDy=0;entryPerimeter=0;exitX=0.611;exitY=0.056;exitDx=0;exitDy=0;exitPerimeter=0;" edge="1" parent="1" source="qDR1dN11LgxM--blbOob-186" target="qDR1dN11LgxM--blbOob-36">
          <mxGeometry x="0.0096" width="160" relative="1" as="geometry">
            <mxPoint x="1100" y="100" as="sourcePoint" />
            <mxPoint x="820" y="190" as="targetPoint" />
            <mxPoint as="offset" />
            <Array as="points">
              <mxPoint x="1100" y="100" />
              <mxPoint x="950" y="100" />
              <mxPoint x="950" y="200" />
              <mxPoint x="819" y="200" />
            </Array>
          </mxGeometry>
        </mxCell>
        <mxCell id="qDR1dN11LgxM--blbOob-194" value="&amp;lt;&amp;lt;Abstract&amp;gt;&amp;gt;&lt;br&gt;Score" style="swimlane;html=1;fontStyle=1;align=center;verticalAlign=top;childLayout=stackLayout;horizontal=1;startSize=40;horizontalStack=0;resizeParent=1;resizeLast=0;collapsible=1;marginBottom=0;swimlaneFillColor=#ffffff;rounded=0;shadow=0;comic=0;labelBackgroundColor=none;strokeWidth=1;fillColor=none;fontFamily=Verdana;fontSize=12" vertex="1" parent="1">
          <mxGeometry x="1440" y="210" width="180" height="150" as="geometry">
            <mxRectangle x="1440" y="200" width="130" height="40" as="alternateBounds" />
          </mxGeometry>
        </mxCell>
        <mxCell id="qDR1dN11LgxM--blbOob-196" value="- score: int" style="text;html=1;strokeColor=none;fillColor=none;align=left;verticalAlign=top;spacingLeft=4;spacingRight=4;whiteSpace=wrap;overflow=hidden;rotatable=0;points=[[0,0.5],[1,0.5]];portConstraint=eastwest;" vertex="1" parent="qDR1dN11LgxM--blbOob-194">
          <mxGeometry y="40" width="180" height="26" as="geometry" />
        </mxCell>
        <mxCell id="qDR1dN11LgxM--blbOob-195" value="" style="line;html=1;strokeWidth=1;fillColor=none;align=left;verticalAlign=middle;spacingTop=-1;spacingLeft=3;spacingRight=3;rotatable=0;labelPosition=right;points=[];portConstraint=eastwest;" vertex="1" parent="qDR1dN11LgxM--blbOob-194">
          <mxGeometry y="66" width="180" height="14" as="geometry" />
        </mxCell>
        <mxCell id="qDR1dN11LgxM--blbOob-197" value="- increaseScore: void" style="text;html=1;strokeColor=none;fillColor=none;align=left;verticalAlign=top;spacingLeft=4;spacingRight=4;whiteSpace=wrap;overflow=hidden;rotatable=0;points=[[0,0.5],[1,0.5]];portConstraint=eastwest;" vertex="1" parent="qDR1dN11LgxM--blbOob-194">
          <mxGeometry y="80" width="180" height="26" as="geometry" />
        </mxCell>
        <mxCell id="qDR1dN11LgxM--blbOob-198" value="- decreaseScore: void" style="text;html=1;strokeColor=none;fillColor=none;align=left;verticalAlign=top;spacingLeft=4;spacingRight=4;whiteSpace=wrap;overflow=hidden;rotatable=0;points=[[0,0.5],[1,0.5]];portConstraint=eastwest;" vertex="1" parent="qDR1dN11LgxM--blbOob-194">
          <mxGeometry y="106" width="180" height="26" as="geometry" />
        </mxCell>
        <mxCell id="qDR1dN11LgxM--blbOob-199" style="edgeStyle=none;rounded=0;orthogonalLoop=1;jettySize=auto;html=1;exitX=0.25;exitY=0;exitDx=0;exitDy=0;" edge="1" parent="1" source="qDR1dN11LgxM--blbOob-194" target="qDR1dN11LgxM--blbOob-194">
          <mxGeometry relative="1" as="geometry" />
        </mxCell>
        <mxCell id="qDR1dN11LgxM--blbOob-201" value="" style="endArrow=diamondThin;endFill=1;endSize=24;html=1;rounded=0;entryX=0.5;entryY=0;entryDx=0;entryDy=0;edgeStyle=orthogonalEdgeStyle;elbow=vertical;exitX=0.5;exitY=0;exitDx=0;exitDy=0;" edge="1" parent="1" source="qDR1dN11LgxM--blbOob-106" target="qDR1dN11LgxM--blbOob-194">
          <mxGeometry width="160" relative="1" as="geometry">
            <mxPoint x="1490" y="-510" as="sourcePoint" />
            <mxPoint x="1530.28" y="197" as="targetPoint" />
            <Array as="points">
              <mxPoint x="1490" y="-510" />
              <mxPoint x="1370" y="-510" />
              <mxPoint x="1370" y="50" />
              <mxPoint x="1530" y="50" />
            </Array>
          </mxGeometry>
        </mxCell>
        <mxCell id="qDR1dN11LgxM--blbOob-202" value="&amp;lt;&amp;lt;Interface&amp;gt;&amp;gt;&lt;br&gt;MapOne" style="swimlane;html=1;fontStyle=1;align=center;verticalAlign=top;childLayout=stackLayout;horizontal=1;startSize=40;horizontalStack=0;resizeParent=1;resizeLast=0;collapsible=1;marginBottom=0;swimlaneFillColor=#ffffff;rounded=0;shadow=0;comic=0;labelBackgroundColor=none;strokeWidth=1;fillColor=none;fontFamily=Verdana;fontSize=12" vertex="1" parent="1">
          <mxGeometry x="1710" y="210" width="180" height="132" as="geometry" />
        </mxCell>
        <mxCell id="qDR1dN11LgxM--blbOob-203" value="" style="line;html=1;strokeWidth=1;fillColor=none;align=left;verticalAlign=middle;spacingTop=-1;spacingLeft=3;spacingRight=3;rotatable=0;labelPosition=right;points=[];portConstraint=eastwest;" vertex="1" parent="qDR1dN11LgxM--blbOob-202">
          <mxGeometry y="40" width="180" height="14" as="geometry" />
        </mxCell>
        <mxCell id="qDR1dN11LgxM--blbOob-204" value="-storyWorld: void" style="text;html=1;strokeColor=none;fillColor=none;align=left;verticalAlign=top;spacingLeft=4;spacingRight=4;whiteSpace=wrap;overflow=hidden;rotatable=0;points=[[0,0.5],[1,0.5]];portConstraint=eastwest;" vertex="1" parent="qDR1dN11LgxM--blbOob-202">
          <mxGeometry y="54" width="180" height="26" as="geometry" />
        </mxCell>
        <mxCell id="qDR1dN11LgxM--blbOob-205" value="-storyMedusa: void" style="text;html=1;strokeColor=none;fillColor=none;align=left;verticalAlign=top;spacingLeft=4;spacingRight=4;whiteSpace=wrap;overflow=hidden;rotatable=0;points=[[0,0.5],[1,0.5]];portConstraint=eastwest;" vertex="1" parent="qDR1dN11LgxM--blbOob-202">
          <mxGeometry y="80" width="180" height="26" as="geometry" />
        </mxCell>
        <mxCell id="qDR1dN11LgxM--blbOob-206" value="- keyboardStart: void" style="text;html=1;strokeColor=none;fillColor=none;align=left;verticalAlign=top;spacingLeft=4;spacingRight=4;whiteSpace=wrap;overflow=hidden;rotatable=0;points=[[0,0.5],[1,0.5]];portConstraint=eastwest;" vertex="1" parent="qDR1dN11LgxM--blbOob-202">
          <mxGeometry y="106" width="180" height="26" as="geometry" />
        </mxCell>
        <mxCell id="qDR1dN11LgxM--blbOob-207" value="&amp;lt;&amp;lt;Interface&amp;gt;&amp;gt;&lt;br&gt;MapTwo" style="swimlane;html=1;fontStyle=1;align=center;verticalAlign=top;childLayout=stackLayout;horizontal=1;startSize=40;horizontalStack=0;resizeParent=1;resizeLast=0;collapsible=1;marginBottom=0;swimlaneFillColor=#ffffff;rounded=0;shadow=0;comic=0;labelBackgroundColor=none;strokeWidth=1;fillColor=none;fontFamily=Verdana;fontSize=12" vertex="1" parent="1">
          <mxGeometry x="1950" y="210" width="180" height="132" as="geometry" />
        </mxCell>
        <mxCell id="qDR1dN11LgxM--blbOob-208" value="" style="line;html=1;strokeWidth=1;fillColor=none;align=left;verticalAlign=middle;spacingTop=-1;spacingLeft=3;spacingRight=3;rotatable=0;labelPosition=right;points=[];portConstraint=eastwest;" vertex="1" parent="qDR1dN11LgxM--blbOob-207">
          <mxGeometry y="40" width="180" height="14" as="geometry" />
        </mxCell>
        <mxCell id="qDR1dN11LgxM--blbOob-209" value="-storyWorld: void" style="text;html=1;strokeColor=none;fillColor=none;align=left;verticalAlign=top;spacingLeft=4;spacingRight=4;whiteSpace=wrap;overflow=hidden;rotatable=0;points=[[0,0.5],[1,0.5]];portConstraint=eastwest;" vertex="1" parent="qDR1dN11LgxM--blbOob-207">
          <mxGeometry y="54" width="180" height="26" as="geometry" />
        </mxCell>
        <mxCell id="qDR1dN11LgxM--blbOob-210" value="-storyEnd: void" style="text;html=1;strokeColor=none;fillColor=none;align=left;verticalAlign=top;spacingLeft=4;spacingRight=4;whiteSpace=wrap;overflow=hidden;rotatable=0;points=[[0,0.5],[1,0.5]];portConstraint=eastwest;" vertex="1" parent="qDR1dN11LgxM--blbOob-207">
          <mxGeometry y="80" width="180" height="26" as="geometry" />
        </mxCell>
        <mxCell id="qDR1dN11LgxM--blbOob-211" value="- keyboardStart: void" style="text;html=1;strokeColor=none;fillColor=none;align=left;verticalAlign=top;spacingLeft=4;spacingRight=4;whiteSpace=wrap;overflow=hidden;rotatable=0;points=[[0,0.5],[1,0.5]];portConstraint=eastwest;" vertex="1" parent="qDR1dN11LgxM--blbOob-207">
          <mxGeometry y="106" width="180" height="26" as="geometry" />
        </mxCell>
        <mxCell id="qDR1dN11LgxM--blbOob-212" value="" style="endArrow=block;dashed=1;endFill=0;endSize=12;html=1;rounded=0;edgeStyle=orthogonalEdgeStyle;exitX=0.664;exitY=-0.006;exitDx=0;exitDy=0;exitPerimeter=0;entryX=0.553;entryY=-0.023;entryDx=0;entryDy=0;entryPerimeter=0;" edge="1" parent="1" source="qDR1dN11LgxM--blbOob-169" target="qDR1dN11LgxM--blbOob-202">
          <mxGeometry width="160" relative="1" as="geometry">
            <mxPoint x="1610" y="170" as="sourcePoint" />
            <mxPoint x="1810" y="170" as="targetPoint" />
            <Array as="points">
              <mxPoint x="1770" y="-50" />
              <mxPoint x="1880" y="-50" />
              <mxPoint x="1880" y="160" />
              <mxPoint x="1810" y="160" />
            </Array>
          </mxGeometry>
        </mxCell>
        <mxCell id="qDR1dN11LgxM--blbOob-213" value="" style="endArrow=block;dashed=1;endFill=0;endSize=12;html=1;rounded=0;edgeStyle=orthogonalEdgeStyle;exitX=0.664;exitY=-0.006;exitDx=0;exitDy=0;exitPerimeter=0;entryX=0.611;entryY=-0.011;entryDx=0;entryDy=0;entryPerimeter=0;" edge="1" parent="1" target="qDR1dN11LgxM--blbOob-207">
          <mxGeometry width="160" relative="1" as="geometry">
            <mxPoint x="2019.97" y="-23" as="sourcePoint" />
            <mxPoint x="2060" y="205" as="targetPoint" />
            <Array as="points">
              <mxPoint x="2020" y="-52" />
              <mxPoint x="2130" y="-52" />
              <mxPoint x="2130" y="158" />
              <mxPoint x="2060" y="158" />
            </Array>
          </mxGeometry>
        </mxCell>
      </root>
    </mxGraphModel>
  </diagram>
  <diagram id="ok9du2032O9aK4YdKWH4" name="Sayfa -2">
    <mxGraphModel dx="1158" dy="776" grid="1" gridSize="10" guides="1" tooltips="1" connect="1" arrows="1" fold="1" page="1" pageScale="1" pageWidth="827" pageHeight="1169" math="0" shadow="0">
      <root>
        <mxCell id="0" />
        <mxCell id="1" parent="0" />
        <mxCell id="5eJgO9WSrGBK9pKLEUrr-1" value="Actor" style="shape=umlActor;verticalLabelPosition=bottom;verticalAlign=top;html=1;" vertex="1" parent="1">
          <mxGeometry x="150" y="150" width="40" height="90" as="geometry" />
        </mxCell>
      </root>
    </mxGraphModel>
  </diagram>
</mxfile>
